<svg width="60" height="170" viewBox="0 0 60 170" fill="none" xmlns="http://www.w3.org/2000/svg">
<path d="M49.7007 5C49.7007 7.7614 51.8722 10 54.5509 10C57.2295 10 59.401 7.7614 59.401 5C59.401 2.2386 57.2295 -9.49179e-08 54.5509 -2.12006e-07C51.8722 -3.29094e-07 49.7007 2.2386 49.7007 5Z" fill="#004385"/>
<path d="M49.7007 45C49.7007 47.7614 51.8722 50 54.5509 50C57.2295 50 59.401 47.7614 59.401 45C59.401 42.2386 57.2295 40 54.5509 40C51.8722 40 49.7007 42.2386 49.7007 45Z" fill="#004385"/>
<path d="M49.7007 85C49.7007 87.7614 51.8722 90 54.5509 90C57.2295 90 59.401 87.7614 59.401 85C59.401 82.2386 57.2295 80 54.5509 80C51.8722 80 49.7007 82.2386 49.7007 85Z" fill="#004385"/>
<path d="M49.7005 125C49.7005 127.762 51.872 130 54.5507 130C57.2295 130 59.401 127.762 59.401 125C59.401 122.239 57.2295 120 54.5507 120C51.872 120 49.7005 122.239 49.7005 125Z" fill="#004385"/>
<path d="M49.7007 165C49.7007 167.761 51.8722 170 54.5509 170C57.2295 170 59.401 167.761 59.401 165C59.401 162.239 57.2295 160 54.5509 160C51.8722 160 49.7007 162.239 49.7007 165Z" fill="#004385"/>
<path d="M-6.31611e-05 5.00013C-6.32818e-05 7.76159 2.17146 10 4.85019 10C7.52891 10 9.70044 7.76159 9.70044 5.00013C9.70044 2.23866 7.52891 -9.49204e-08 4.85019 -2.12011e-07C2.17146 -3.29102e-07 -6.30404e-05 2.23866 -6.31611e-05 5.00013Z" fill="#004385"/>
<path d="M4.85031 50C2.18273 50 0.00018372 47.75 0.000183841 45C0.000183961 42.25 2.18273 40 4.85031 40C7.51789 40 9.70044 42.25 9.70044 45C9.70044 47.75 7.51789 50 4.85031 50Z" fill="#004385"/>
<path d="M-6.31611e-05 85.0001C-6.32818e-05 87.7616 2.17146 90 4.85019 90C7.52891 90 9.70044 87.7616 9.70044 85.0001C9.70044 82.2387 7.52891 80 4.85019 80C2.17146 80 -6.30404e-05 82.2387 -6.31611e-05 85.0001Z" fill="#004385"/>
<path d="M0.000183841 125C0.00018372 127.761 2.17165 130 4.85031 130C7.52897 130 9.70044 127.761 9.70044 125C9.70044 122.239 7.52897 120 4.85031 120C2.17165 120 0.000183961 122.239 0.000183841 125Z" fill="#004385"/>
<path d="M-6.31611e-05 165C-6.32818e-05 167.762 2.17146 170 4.85019 170C7.52891 170 9.70044 167.762 9.70044 165C9.70044 162.239 7.52891 160 4.85019 160C2.17146 160 -6.30404e-05 162.239 -6.31611e-05 165Z" fill="#004385"/>
</svg>
