<svg width="687" height="686" viewBox="0 0 687 686" fill="none" xmlns="http://www.w3.org/2000/svg">
<g filter="url(#filter0_d_146_184)">
<path fill-rule="evenodd" clip-rule="evenodd" d="M911.477 378.223C869.874 413.466 814.653 424.113 760.436 429.538C707.746 434.811 656.554 427.08 606.938 408.696C549.634 387.465 462.038 376.612 454.03 316.011C445.112 248.524 560.799 223.27 573.595 156.369C586.304 89.9266 478.947 18.6641 521.043 -34.3403C560.35 -83.8325 640.753 -9.5239 703.873 -7.66682C751.878 -6.25443 803.524 -51.5372 843.409 -24.8558C883.83 2.18403 858.601 69.7461 882.722 111.975C910.402 160.435 985.267 178.48 991.263 233.997C997.305 289.936 954.457 341.813 911.477 378.223Z" fill="#3F8EFC" fill-opacity="0.7" shape-rendering="crispEdges"/>
</g>
<g filter="url(#filter1_d_146_184)">
<path fill-rule="evenodd" clip-rule="evenodd" d="M324.066 148.049C354.403 88.644 411.713 50.5791 470.353 18.8826C527.341 -11.9216 588.773 -27.3413 653.449 -29.9934C728.147 -33.0565 832.142 -62.1232 869.766 2.5043C911.664 74.4759 792.992 157.549 810.103 239.1C827.097 320.094 981.892 349.896 959.376 429.582C938.352 503.988 812.544 458.034 740.421 485.71C685.567 506.759 648.629 582.233 591.022 570.929C532.642 559.473 529.252 471.31 482.107 435.02C428.005 393.375 334.987 408.319 302.033 348.481C268.828 288.188 292.725 209.42 324.066 148.049Z" fill="#87BFFF" fill-opacity="0.04" shape-rendering="crispEdges"/>
</g>
<path d="M168.742 142.237L98.6982 112.771C107.348 119.546 116.732 125.286 126.608 129.913L136.971 134.273C147.185 138.097 157.85 140.791 168.742 142.237Z" fill="#004385"/>
<path d="M214.334 140.956L67.7327 79.285C69.4797 81.9366 71.3224 84.4791 73.2252 86.997L204.98 142.423C208.11 142.022 211.216 141.561 214.334 140.956Z" fill="#004385"/>
<path d="M241.881 132.806C242.152 132.695 242.452 132.573 242.722 132.463L53.9817 53.0397C54.0919 53.3101 54.2145 53.6105 54.3247 53.8809C55.1211 55.8338 55.9653 57.7323 56.7973 59.6006L236.051 135.008C238.011 134.314 239.958 133.59 241.881 132.806Z" fill="#004385"/>
<path d="M264.531 121.152L46.8292 29.5708C47.2583 31.5683 47.7297 33.5837 48.249 35.5445L259.268 124.314C261.033 123.314 262.803 122.242 264.531 121.152Z" fill="#004385"/>
<path d="M282.092 108.103L43.8759 7.8925C43.9667 9.74771 44.1298 11.6085 44.3229 13.457L277.801 111.675C279.246 110.49 280.69 109.306 282.092 108.103Z" fill="#004385"/>
<path d="M296.426 93.6735L44.1259 -12.4623C43.9929 -10.7261 43.8722 -8.95981 43.7815 -7.20581L292.91 97.5956C294.1 96.3042 295.291 95.0128 296.426 93.6735Z" fill="#004385"/>
<path d="M308.096 78.1218L47.082 -31.6794C46.7075 -30.0199 46.363 -28.3727 46.0608 -26.7077L305.256 82.3284C306.235 80.9481 307.171 79.55 308.096 78.1218Z" fill="#004385"/>
<path d="M317.397 61.5741L52.4492 -49.8818C51.8933 -48.3236 51.3373 -46.7653 50.8236 -45.1892L315.179 66.0177C315.916 64.5606 316.671 63.0612 317.397 61.5741Z" fill="#004385"/>
<path d="M324.371 44.0476L60.0585 -67.1415C59.291 -65.6722 58.5358 -64.1728 57.8107 -62.6857L322.758 48.7702C323.314 47.2119 323.87 45.6537 324.371 44.0476Z" fill="#004385"/>
<path d="M329.074 25.5911L69.9639 -83.4095C68.985 -82.0292 68.0483 -80.631 67.124 -79.2029L328.083 30.5506C328.428 28.9033 328.772 27.2561 329.074 25.5911Z" fill="#004385"/>
<path d="M331.311 6.07165L82.3943 -98.6408C81.2039 -97.3494 80.0135 -96.0581 78.8776 -94.7188L331.009 11.3458C331.13 9.57955 331.22 7.82564 331.311 6.07165Z" fill="#004385"/>
<path d="M330.757 -14.6215L97.5325 -112.733C96.0761 -111.578 94.6441 -110.363 93.2422 -109.161L331.204 -9.05703C331.113 -10.9122 330.95 -12.773 330.757 -14.6215Z" fill="#004385"/>
<path d="M326.777 -36.7563L116.139 -125.366C114.344 -124.354 112.574 -123.281 110.846 -122.191L328.209 -30.7526C327.78 -32.7502 327.309 -34.7654 326.777 -36.7563Z" fill="#004385"/>
<path d="M320.793 -54.7805C319.948 -56.8536 319.055 -58.8721 318.144 -60.8484L139.44 -136.024C137.36 -135.281 135.292 -134.508 133.249 -133.675C133.069 -133.602 132.919 -133.54 132.739 -133.467L321.002 -54.2697C320.91 -54.4077 320.867 -54.6003 320.793 -54.7805Z" fill="#004385"/>
<defs>
<filter id="filter0_d_146_184" x="386.54" y="-87.3135" width="626.295" height="570.475" filterUnits="userSpaceOnUse" color-interpolation-filters="sRGB">
<feFlood flood-opacity="0" result="BackgroundImageFix"/>
<feColorMatrix in="SourceAlpha" type="matrix" values="0 0 0 0 0 0 0 0 0 0 0 0 0 0 0 0 0 0 127 0" result="hardAlpha"/>
<feOffset dx="-23" dy="8"/>
<feGaussianBlur stdDeviation="22"/>
<feComposite in2="hardAlpha" operator="out"/>
<feColorMatrix type="matrix" values="0 0 0 0 0 0 0 0 0 0.262745 0 0 0 0 0.521569 0 0 0 0.13 0"/>
<feBlend mode="normal" in2="BackgroundImageFix" result="effect1_dropShadow_146_184"/>
<feBlend mode="normal" in="SourceGraphic" in2="effect1_dropShadow_146_184" result="shape"/>
</filter>
<filter id="filter1_d_146_184" x="233.015" y="-40.1451" width="763.594" height="699.221" filterUnits="userSpaceOnUse" color-interpolation-filters="sRGB">
<feFlood flood-opacity="0" result="BackgroundImageFix"/>
<feColorMatrix in="SourceAlpha" type="matrix" values="0 0 0 0 0 0 0 0 0 0 0 0 0 0 0 0 0 0 127 0" result="hardAlpha"/>
<feOffset dx="-9" dy="43"/>
<feGaussianBlur stdDeviation="22"/>
<feComposite in2="hardAlpha" operator="out"/>
<feColorMatrix type="matrix" values="0 0 0 0 0 0 0 0 0 0.262745 0 0 0 0 0.521569 0 0 0 0.13 0"/>
<feBlend mode="normal" in2="BackgroundImageFix" result="effect1_dropShadow_146_184"/>
<feBlend mode="normal" in="SourceGraphic" in2="effect1_dropShadow_146_184" result="shape"/>
</filter>
</defs>
</svg>
