<svg width="170" height="60" viewBox="0 0 170 60" fill="none" xmlns="http://www.w3.org/2000/svg">
<path d="M5 9.70026C7.7614 9.70026 10 7.52879 10 4.85013C10 2.17147 7.7614 0 5 0C2.2386 0 0 2.17147 0 4.85013C0 7.52879 2.2386 9.70026 5 9.70026Z" fill="#004385"/>
<path d="M45 9.70026C47.7614 9.70026 50 7.52879 50 4.85013C50 2.17147 47.7614 0 45 0C42.2386 0 40 2.17147 40 4.85013C40 7.52879 42.2386 9.70026 45 9.70026Z" fill="#004385"/>
<path d="M85 9.70026C87.7614 9.70026 90 7.52879 90 4.85013C90 2.17147 87.7614 0 85 0C82.2386 0 80 2.17147 80 4.85013C80 7.52879 82.2386 9.70026 85 9.70026Z" fill="#004385"/>
<path d="M125 9.7005C127.762 9.7005 130 7.52898 130 4.85025C130 2.17152 127.762 0 125 0C122.239 0 120 2.17152 120 4.85025C120 7.52898 122.239 9.7005 125 9.7005Z" fill="#004385"/>
<path d="M165 9.70026C167.761 9.70026 170 7.52879 170 4.85013C170 2.17147 167.761 0 165 0C162.239 0 160 2.17147 160 4.85013C160 7.52879 162.239 9.70026 165 9.70026Z" fill="#004385"/>
<path d="M5.00013 59.4009C7.76159 59.4009 10 57.2294 10 54.5507C10 51.872 7.76159 49.7004 5.00013 49.7004C2.23866 49.7004 0 51.872 0 54.5507C0 57.2294 2.23866 59.4009 5.00013 59.4009Z" fill="#004385"/>
<path d="M50 54.5506C50 57.2181 47.75 59.4007 45 59.4007C42.25 59.4007 40 57.2181 40 54.5506C40 51.883 42.25 49.7004 45 49.7004C47.75 49.7004 50 51.883 50 54.5506Z" fill="#004385"/>
<path d="M85.0001 59.4009C87.7616 59.4009 90 57.2294 90 54.5507C90 51.872 87.7616 49.7004 85.0001 49.7004C82.2387 49.7004 80 51.872 80 54.5507C80 57.2294 82.2387 59.4009 85.0001 59.4009Z" fill="#004385"/>
<path d="M125 59.4007C127.761 59.4007 130 57.2292 130 54.5506C130 51.8719 127.761 49.7004 125 49.7004C122.239 49.7004 120 51.8719 120 54.5506C120 57.2292 122.239 59.4007 125 59.4007Z" fill="#004385"/>
<path d="M165 59.4009C167.762 59.4009 170 57.2294 170 54.5507C170 51.872 167.762 49.7004 165 49.7004C162.239 49.7004 160 51.872 160 54.5507C160 57.2294 162.239 59.4009 165 59.4009Z" fill="#004385"/>
</svg>
