<svg width="435" height="463" viewBox="0 0 435 463" fill="none" xmlns="http://www.w3.org/2000/svg">
<g filter="url(#filter0_d_132_276)">
<path fill-rule="evenodd" clip-rule="evenodd" d="M150.692 217.372C96.8082 209.038 52.5811 174.3 12.957 136.9C-25.5516 100.552 -53.2557 56.8154 -71.8802 7.28971C-93.3906 -49.9104 -142.591 -123.192 -102.06 -168.951C-56.9234 -219.909 37.9585 -149.067 96.88 -183.238C155.399 -217.175 138.884 -344.968 206.508 -347.9C269.651 -350.637 266.203 -241.209 306.159 -192.312C336.549 -155.123 404.597 -145.781 410.577 -98.1683C416.637 -49.9159 349.069 -24.7033 332.974 21.1883C314.505 73.8519 349.93 142.23 311.921 183.137C273.624 224.355 206.359 225.981 150.692 217.372Z" fill="#3F8EFC" fill-opacity="0.7" shape-rendering="crispEdges"/>
</g>
<g filter="url(#filter1_d_132_276)">
<path fill-rule="evenodd" clip-rule="evenodd" d="M-18.9246 -155.004C32.3439 -167.679 84.843 -153.15 134.223 -134.522C182.212 -116.419 223.305 -87.6775 258.445 -50.3713C299.031 -7.28412 370.368 39.8347 351.234 95.8657C329.926 158.264 218.673 130.385 178.775 182.928C139.15 235.112 201.634 343.155 142.293 371.029C86.8841 397.057 49.0993 297.972 -4.87102 269.193C-45.9183 247.306 -110.222 264.37 -133.348 224.051C-156.784 183.191 -105.813 135.425 -108.567 88.4006C-111.728 34.4372 -168.924 -13.4432 -150.232 -64.1971C-131.398 -115.336 -71.8897 -141.909 -18.9246 -155.004Z" fill="#87BFFF" fill-opacity="0.04" shape-rendering="crispEdges"/>
</g>
<defs>
<filter id="filter0_d_132_276" x="-184.582" y="-383.95" width="616.542" height="657.515" filterUnits="userSpaceOnUse" color-interpolation-filters="sRGB">
<feFlood flood-opacity="0" result="BackgroundImageFix"/>
<feColorMatrix in="SourceAlpha" type="matrix" values="0 0 0 0 0 0 0 0 0 0 0 0 0 0 0 0 0 0 127 0" result="hardAlpha"/>
<feOffset dx="-23" dy="8"/>
<feGaussianBlur stdDeviation="22"/>
<feComposite in2="hardAlpha" operator="out"/>
<feColorMatrix type="matrix" values="0 0 0 0 0 0 0 0 0 0.262745 0 0 0 0 0.521569 0 0 0 0.13 0"/>
<feBlend mode="normal" in2="BackgroundImageFix" result="effect1_dropShadow_132_276"/>
<feBlend mode="normal" in="SourceGraphic" in2="effect1_dropShadow_132_276" result="shape"/>
</filter>
<filter id="filter1_d_132_276" x="-206.977" y="-160.78" width="596.407" height="623.122" filterUnits="userSpaceOnUse" color-interpolation-filters="sRGB">
<feFlood flood-opacity="0" result="BackgroundImageFix"/>
<feColorMatrix in="SourceAlpha" type="matrix" values="0 0 0 0 0 0 0 0 0 0 0 0 0 0 0 0 0 0 127 0" result="hardAlpha"/>
<feOffset dx="-9" dy="43"/>
<feGaussianBlur stdDeviation="22"/>
<feComposite in2="hardAlpha" operator="out"/>
<feColorMatrix type="matrix" values="0 0 0 0 0 0 0 0 0 0.262745 0 0 0 0 0.521569 0 0 0 0.13 0"/>
<feBlend mode="normal" in2="BackgroundImageFix" result="effect1_dropShadow_132_276"/>
<feBlend mode="normal" in="SourceGraphic" in2="effect1_dropShadow_132_276" result="shape"/>
</filter>
</defs>
</svg>
