<svg width="139" height="221" viewBox="0 0 139 221" fill="none" xmlns="http://www.w3.org/2000/svg">
<path d="M164.664 50.777L186.609 137.142C187.204 135.466 187.718 133.783 188.201 132.082L168.479 54.4631C167.242 53.1989 165.987 51.966 164.664 50.777Z" fill="#004385"/>
<path d="M151.716 41.215C151.575 41.1314 151.419 41.0385 151.279 40.9548L179.52 152.154C179.604 152.013 179.697 151.857 179.781 151.716C180.385 150.701 180.948 149.682 181.503 148.679L154.67 43.0774C153.697 42.4358 152.716 41.8098 151.716 41.215Z" fill="#004385"/>
<path d="M138.857 35.0258L171.445 163.278C172.193 162.411 172.935 161.52 173.636 160.626L142.048 36.3105C141.005 35.8593 139.927 35.4301 138.857 35.0258Z" fill="#004385"/>
<path d="M127.092 31.5827L162.751 171.92C163.55 171.253 164.327 170.551 165.088 169.841L130.138 32.2943C129.121 32.0488 128.103 31.8033 127.092 31.5827Z" fill="#004385"/>
<path d="M115.8 30.0481L153.567 178.683C154.389 178.156 155.219 177.613 156.034 177.061L118.741 30.2956C117.762 30.1996 116.782 30.1036 115.8 30.0481Z" fill="#004385"/>
<path d="M104.907 30.0841L143.978 183.852C144.847 183.459 145.699 183.057 146.546 182.629L107.746 29.9329C106.799 29.9615 105.857 30.015 104.907 30.0841Z" fill="#004385"/>
<path d="M94.3678 31.5153L134.028 187.6C134.913 187.323 135.797 187.045 136.675 186.742L97.1033 31.0059C96.2029 31.1684 95.2775 31.3372 94.3678 31.5153Z" fill="#004385"/>
<path d="M84.1772 34.3168L123.743 190.028C124.659 189.875 125.584 189.706 126.494 189.528L86.8332 33.443C85.9489 33.7207 85.0645 33.9985 84.1772 34.3168Z" fill="#004385"/>
<path d="M74.338 38.4482L113.125 191.095C114.072 191.066 115.014 191.013 115.964 190.943L76.8898 37.2162C76.0371 37.6185 75.1844 38.0209 74.338 38.4482Z" fill="#004385"/>
<path d="M64.8566 44.0408L102.117 190.682C103.097 190.778 104.076 190.874 105.058 190.93L67.3164 42.3945C66.486 42.9371 65.6713 43.4889 64.8566 44.0408Z" fill="#004385"/>
<path d="M55.7931 51.2773L90.705 188.674C91.7131 188.935 92.7397 189.165 93.7507 189.386L58.1297 49.1982C57.331 49.8653 56.5542 50.5667 55.7931 51.2773Z" fill="#004385"/>
<path d="M47.2423 60.5327L78.7732 184.623C79.8319 185.084 80.9092 185.513 81.9801 185.917L49.4425 57.8648C48.6945 58.7313 47.9528 59.6227 47.2423 60.5327Z" fill="#004385"/>
<path d="M41.2058 69.2954C40.5645 70.3735 39.9639 71.4545 39.3881 72.5292L66.1387 177.807C67.1733 178.486 68.2172 179.149 69.2797 179.781C69.3734 179.837 69.4515 179.883 69.5453 179.939L41.3638 69.0297C41.3329 69.1171 41.2615 69.2016 41.2058 69.2954Z" fill="#004385"/>
<path d="M32.7396 89.2194L52.3356 166.34C53.5626 167.62 54.8332 168.862 56.1473 170.067L34.31 84.1252C33.7304 85.811 33.2069 87.5091 32.7396 89.2194Z" fill="#004385"/>
<path d="M40.1031 149.779L29.8904 109.586C29.7449 123.629 33.2716 137.509 40.1031 149.779Z" fill="#004385"/>
</svg>
