<svg width="111" height="35" viewBox="0 0 111 35" fill="none" xmlns="http://www.w3.org/2000/svg">
<path d="M5.5 9.99982C8.2614 9.99982 10.5 7.82835 10.5 5.14969C10.5 2.47103 8.2614 0.299561 5.5 0.299561C2.7386 0.299561 0.5 2.47103 0.5 5.14969C0.5 7.82835 2.7386 9.99982 5.5 9.99982Z" fill="#004385"/>
<path d="M30.5 9.99982C33.2614 9.99982 35.5 7.82835 35.5 5.14969C35.5 2.47103 33.2614 0.299561 30.5 0.299561C27.7386 0.299561 25.5 2.47103 25.5 5.14969C25.5 7.82835 27.7386 9.99982 30.5 9.99982Z" fill="#004385"/>
<path d="M55.5 9.99982C58.2614 9.99982 60.5 7.82835 60.5 5.14969C60.5 2.47103 58.2614 0.299561 55.5 0.299561C52.7386 0.299561 50.5 2.47103 50.5 5.14969C50.5 7.82835 52.7386 9.99982 55.5 9.99982Z" fill="#004385"/>
<path d="M80.5001 10.0001C83.2616 10.0001 85.5 7.82854 85.5 5.14981C85.5 2.47109 83.2616 0.299561 80.5001 0.299561C77.7387 0.299561 75.5 2.47109 75.5 5.14981C75.5 7.82854 77.7387 10.0001 80.5001 10.0001Z" fill="#004385"/>
<path d="M105.5 9.99982C108.261 9.99982 110.5 7.82835 110.5 5.14969C110.5 2.47103 108.261 0.299561 105.5 0.299561C102.739 0.299561 100.5 2.47103 100.5 5.14969C100.5 7.82835 102.739 9.99982 105.5 9.99982Z" fill="#004385"/>
<path d="M5.50013 34.7005C8.26159 34.7005 10.5 32.529 10.5 29.8503C10.5 27.1715 8.26159 25 5.50013 25C2.73866 25 0.5 27.1715 0.5 29.8503C0.5 32.529 2.73866 34.7005 5.50013 34.7005Z" fill="#004385"/>
<path d="M35.5 29.8501C35.5 32.5177 33.25 34.7003 30.5 34.7003C27.75 34.7003 25.5 32.5177 25.5 29.8501C25.5 27.1826 27.75 25 30.5 25C33.25 25 35.5 27.1826 35.5 29.8501Z" fill="#004385"/>
<path d="M55.5001 34.7005C58.2616 34.7005 60.5 32.529 60.5 29.8503C60.5 27.1715 58.2616 25 55.5001 25C52.7387 25 50.5 27.1715 50.5 29.8503C50.5 32.529 52.7387 34.7005 55.5001 34.7005Z" fill="#004385"/>
<path d="M80.5 34.7003C83.2614 34.7003 85.5 32.5288 85.5 29.8501C85.5 27.1715 83.2614 25 80.5 25C77.7386 25 75.5 27.1715 75.5 29.8501C75.5 32.5288 77.7386 34.7003 80.5 34.7003Z" fill="#004385"/>
<path d="M105.5 34.7005C108.262 34.7005 110.5 32.529 110.5 29.8503C110.5 27.1715 108.262 25 105.5 25C102.739 25 100.5 27.1715 100.5 29.8503C100.5 32.529 102.739 34.7005 105.5 34.7005Z" fill="#004385"/>
</svg>
