<svg width="414" height="359" viewBox="0 0 414 359" fill="none" xmlns="http://www.w3.org/2000/svg">
<g filter="url(#filter0_d_132_365)">
<path fill-rule="evenodd" clip-rule="evenodd" d="M269.623 -77.7098C293.069 -54.5989 302.461 -21.9669 308.659 10.3435C314.682 41.7444 312.804 72.9483 304.434 103.781C294.768 139.391 292.984 192.656 256.974 200.752C216.872 209.768 195.422 141.565 154.498 137.492C113.853 133.446 76.8098 201.864 42.6559 179.418C10.7651 158.459 51.0995 106.085 48.7994 68.0263C47.0501 39.0809 17.0227 10.4741 30.909 -14.956C44.9818 -40.7278 86.9772 -29.2132 111.067 -46.0045C138.711 -65.2737 145.51 -111.272 178.571 -117.883C211.884 -124.545 245.401 -101.585 269.623 -77.7098Z" fill="#87BFFF" fill-opacity="0.04" shape-rendering="crispEdges"/>
</g>
<g filter="url(#filter1_d_132_365)">
<path fill-rule="evenodd" clip-rule="evenodd" d="M118.908 -181.11C152.15 -192.072 187.579 -185.119 221.153 -175.299C253.781 -165.756 282.388 -148.834 307.494 -125.952C336.489 -99.5235 386.012 -71.9821 376.193 -33.9872C365.258 8.3254 290.327 -4.4869 266.61 32.2502C243.055 68.7363 289.799 136.987 251.988 158.403C216.682 178.399 186.713 114.821 149.593 98.5248C121.362 86.1305 79.7255 100.652 62.4085 75.1722C44.859 49.3506 76.135 15.2118 71.9426 -15.7267C67.1315 -51.2306 26.9169 -79.9886 36.7098 -114.474C46.5771 -149.221 84.5645 -169.784 118.908 -181.11Z" fill="#3F8EFC" fill-opacity="0.7" shape-rendering="crispEdges"/>
</g>
<defs>
<filter id="filter0_d_132_365" x="-25.7464" y="-120.051" width="372.931" height="408.624" filterUnits="userSpaceOnUse" color-interpolation-filters="sRGB">
<feFlood flood-opacity="0" result="BackgroundImageFix"/>
<feColorMatrix in="SourceAlpha" type="matrix" values="0 0 0 0 0 0 0 0 0 0 0 0 0 0 0 0 0 0 127 0" result="hardAlpha"/>
<feOffset dx="-9" dy="43"/>
<feGaussianBlur stdDeviation="22"/>
<feComposite in2="hardAlpha" operator="out"/>
<feColorMatrix type="matrix" values="0 0 0 0 0 0 0 0 0 0.262745 0 0 0 0 0.521569 0 0 0 0.13 0"/>
<feBlend mode="normal" in2="BackgroundImageFix" result="effect1_dropShadow_132_365"/>
<feBlend mode="normal" in="SourceGraphic" in2="effect1_dropShadow_132_365" result="shape"/>
</filter>
<filter id="filter1_d_132_365" x="-31.8208" y="-222.686" width="430.282" height="436.94" filterUnits="userSpaceOnUse" color-interpolation-filters="sRGB">
<feFlood flood-opacity="0" result="BackgroundImageFix"/>
<feColorMatrix in="SourceAlpha" type="matrix" values="0 0 0 0 0 0 0 0 0 0 0 0 0 0 0 0 0 0 127 0" result="hardAlpha"/>
<feOffset dx="-23" dy="8"/>
<feGaussianBlur stdDeviation="22"/>
<feComposite in2="hardAlpha" operator="out"/>
<feColorMatrix type="matrix" values="0 0 0 0 0 0 0 0 0 0.262745 0 0 0 0 0.521569 0 0 0 0.13 0"/>
<feBlend mode="normal" in2="BackgroundImageFix" result="effect1_dropShadow_132_365"/>
<feBlend mode="normal" in="SourceGraphic" in2="effect1_dropShadow_132_365" result="shape"/>
</filter>
</defs>
</svg>
