<svg width="252" height="439" viewBox="0 0 252 439" fill="none" xmlns="http://www.w3.org/2000/svg">
<g filter="url(#filter0_d_132_368)">
<path fill-rule="evenodd" clip-rule="evenodd" d="M104.475 304.03C94.1269 283.587 95.1612 259.978 98.2319 237.288C101.216 215.237 109.369 195.066 121.723 176.579C135.991 155.227 148.971 120.481 174.522 123.119C202.977 126.056 202.015 175.806 228.112 187.562C254.031 199.237 293.631 162.306 311.19 184.683C327.586 205.577 289.37 231.193 282.454 256.812C277.195 276.296 290.666 301.823 275.87 315.523C260.875 329.408 235.72 312.506 216.107 318.246C193.599 324.833 178.921 353.674 155.644 350.71C132.19 347.723 115.165 325.149 104.475 304.03Z" fill="#87BFFF" fill-opacity="0.04" shape-rendering="crispEdges"/>
</g>
<g filter="url(#filter1_d_132_368)">
<path fill-rule="evenodd" clip-rule="evenodd" d="M377.022 179.239C375.682 203.563 362.178 224.753 347.288 244.014C332.817 262.732 314.587 276.971 293.383 287.426C268.895 299.502 238.471 324.595 216.345 308.583C191.706 290.751 219.039 245.452 201.259 220.754C183.6 196.224 127.503 209.178 123.231 179.239C119.241 151.283 168.048 148.012 188.036 128.099C203.237 112.954 204.403 82.2872 225.311 77.5378C246.5 72.7247 260.677 101.661 281.788 106.802C306.015 112.703 334.863 93.9491 354.721 109.053C374.73 124.272 378.406 154.109 377.022 179.239Z" fill="#3F8EFC" fill-opacity="0.7" shape-rendering="crispEdges"/>
</g>
<defs>
<filter id="filter0_d_132_368" x="43.1223" y="121.977" width="307.118" height="315.946" filterUnits="userSpaceOnUse" color-interpolation-filters="sRGB">
<feFlood flood-opacity="0" result="BackgroundImageFix"/>
<feColorMatrix in="SourceAlpha" type="matrix" values="0 0 0 0 0 0 0 0 0 0 0 0 0 0 0 0 0 0 127 0" result="hardAlpha"/>
<feOffset dx="-9" dy="43"/>
<feGaussianBlur stdDeviation="22"/>
<feComposite in2="hardAlpha" operator="out"/>
<feColorMatrix type="matrix" values="0 0 0 0 0 0 0 0 0 0.262745 0 0 0 0 0.521569 0 0 0 0.13 0"/>
<feBlend mode="normal" in2="BackgroundImageFix" result="effect1_dropShadow_132_368"/>
<feBlend mode="normal" in="SourceGraphic" in2="effect1_dropShadow_132_368" result="shape"/>
</filter>
<filter id="filter1_d_132_368" x="55.9998" y="41" width="342.282" height="324.767" filterUnits="userSpaceOnUse" color-interpolation-filters="sRGB">
<feFlood flood-opacity="0" result="BackgroundImageFix"/>
<feColorMatrix in="SourceAlpha" type="matrix" values="0 0 0 0 0 0 0 0 0 0 0 0 0 0 0 0 0 0 127 0" result="hardAlpha"/>
<feOffset dx="-23" dy="8"/>
<feGaussianBlur stdDeviation="22"/>
<feComposite in2="hardAlpha" operator="out"/>
<feColorMatrix type="matrix" values="0 0 0 0 0 0 0 0 0 0.262745 0 0 0 0 0.521569 0 0 0 0.13 0"/>
<feBlend mode="normal" in2="BackgroundImageFix" result="effect1_dropShadow_132_368"/>
<feBlend mode="normal" in="SourceGraphic" in2="effect1_dropShadow_132_368" result="shape"/>
</filter>
</defs>
</svg>
