<svg width="109" height="35" viewBox="0 0 109 35" fill="none" xmlns="http://www.w3.org/2000/svg">
<path d="M103.5 25.0004C100.739 25.0004 98.5 27.1719 98.5 29.8506C98.5 32.5292 100.739 34.7007 103.5 34.7007C106.261 34.7007 108.5 32.5292 108.5 29.8506C108.5 27.1719 106.261 25.0004 103.5 25.0004Z" fill="#004385"/>
<path d="M78.5 25.0004C75.7386 25.0004 73.5 27.1719 73.5 29.8506C73.5 32.5292 75.7386 34.7007 78.5 34.7007C81.2614 34.7007 83.5 32.5292 83.5 29.8506C83.5 27.1719 81.2614 25.0004 78.5 25.0004Z" fill="#004385"/>
<path d="M53.5 25.0004C50.7386 25.0004 48.5 27.1719 48.5 29.8506C48.5 32.5292 50.7386 34.7007 53.5 34.7007C56.2614 34.7007 58.5 32.5292 58.5 29.8506C58.5 27.1719 56.2614 25.0004 53.5 25.0004Z" fill="#004385"/>
<path d="M28.4999 25.0002C25.7384 25.0002 23.5 27.1717 23.5 29.8504C23.5 32.5292 25.7384 34.7007 28.4999 34.7007C31.2613 34.7007 33.5 32.5292 33.5 29.8504C33.5 27.1717 31.2613 25.0002 28.4999 25.0002Z" fill="#004385"/>
<path d="M3.5 25.0004C0.738605 25.0004 -1.5 27.1719 -1.5 29.8506C-1.5 32.5292 0.738605 34.7007 3.5 34.7007C6.2614 34.7007 8.5 32.5292 8.5 29.8506C8.5 27.1719 6.2614 25.0004 3.5 25.0004Z" fill="#004385"/>
<path d="M103.5 0.299497C100.738 0.299497 98.5 2.47102 98.5 5.14975C98.5 7.82847 100.738 10 103.5 10C106.261 10 108.5 7.82848 108.5 5.14975C108.5 2.47102 106.261 0.299497 103.5 0.299497Z" fill="#004385"/>
<path d="M73.5 5.14987C73.5 2.48229 75.75 0.299744 78.5 0.299744C81.25 0.299744 83.5 2.4823 83.5 5.14987C83.5 7.81745 81.25 10 78.5 10C75.75 10 73.5 7.81745 73.5 5.14987Z" fill="#004385"/>
<path d="M53.4999 0.299497C50.7384 0.299497 48.5 2.47102 48.5 5.14975C48.5 7.82847 50.7384 10 53.4999 10C56.2613 10 58.5 7.82848 58.5 5.14975C58.5 2.47102 56.2613 0.299497 53.4999 0.299497Z" fill="#004385"/>
<path d="M28.5 0.299744C25.7386 0.299744 23.5 2.47121 23.5 5.14987C23.5 7.82853 25.7386 10 28.5 10C31.2614 10 33.5 7.82853 33.5 5.14987C33.5 2.47121 31.2614 0.299744 28.5 0.299744Z" fill="#004385"/>
<path d="M3.49987 0.299497C0.738408 0.299497 -1.5 2.47102 -1.5 5.14975C-1.5 7.82847 0.738407 10 3.49987 10C6.26134 10 8.5 7.82848 8.5 5.14975C8.5 2.47102 6.26134 0.299497 3.49987 0.299497Z" fill="#004385"/>
</svg>
