<svg width="64" height="101" viewBox="0 0 64 101" fill="none" xmlns="http://www.w3.org/2000/svg">
<path d="M13.4302 87.0203L-5.33054 81.9934C-2.90479 83.4083 -0.329098 84.5356 2.33269 85.3642L5.10828 86.1079C7.82775 86.7212 10.622 87.0328 13.4302 87.0203Z" fill="#004385"/>
<path d="M24.9306 85.1115L-14.3356 74.5901C-13.801 75.2008 -13.246 75.7806 -12.6767 76.3521L22.6131 85.8079C23.3919 85.5977 24.1624 85.3731 24.9306 85.1115Z" fill="#004385"/>
<path d="M31.6231 82.0901C31.6877 82.0528 31.7595 82.0114 31.8242 81.974L-18.7298 68.4221C-18.6925 68.4867 -18.651 68.5585 -18.6137 68.6232C-18.3442 69.09 -18.0644 69.5414 -17.7888 69.9856L30.2233 82.8504C30.6955 82.6066 31.1634 82.3555 31.6231 82.0901Z" fill="#004385"/>
<path d="M36.9535 78.3519L-21.3567 62.7277C-21.1786 63.2186 -20.9892 63.7126 -20.7895 64.191L35.7307 79.3356C36.1428 79.0211 36.5538 78.688 36.9535 78.3519Z" fill="#004385"/>
<path d="M40.9468 74.4374L-22.8579 57.3409C-22.7705 57.8076 -22.6645 58.2731 -22.5513 58.7345L39.9845 75.4909C40.3091 75.1407 40.6336 74.7906 40.9468 74.4374Z" fill="#004385"/>
<path d="M44.0752 70.2853L-23.5021 52.178C-23.4754 52.6223 -23.4446 53.0738 -23.4066 53.5211L43.321 71.4007C43.5776 71.0323 43.8341 70.6639 44.0752 70.2853Z" fill="#004385"/>
<path d="M46.4896 65.9415L-23.4214 47.2089C-23.4586 47.6422 -23.4886 48.0712 -23.5072 48.5034L45.9167 67.1055C46.1166 66.7219 46.3052 66.3353 46.4896 65.9415Z" fill="#004385"/>
<path d="M48.2696 61.428L-22.695 42.4131C-22.7816 42.827 -22.8682 43.2409 -22.9435 43.6579L47.8625 62.6303C47.9986 62.2357 48.1377 61.8298 48.2696 61.428Z" fill="#004385"/>
<path d="M49.4267 56.7476L-21.368 37.7782C-21.5113 38.1769 -21.6504 38.5828 -21.7823 38.9846L49.1823 57.9995C49.2689 57.5856 49.3555 57.1717 49.4267 56.7476Z" fill="#004385"/>
<path d="M49.9761 51.9105L-19.4251 33.3145C-19.625 33.6981 -19.8136 34.0847 -19.998 34.4784L49.8975 53.2008C49.9275 52.7717 49.9575 52.3427 49.9761 51.9105Z" fill="#004385"/>
<path d="M49.8642 46.8899L-16.8068 29.0255C-17.0633 29.3938 -17.3199 29.7622 -17.561 30.1408L49.971 48.2359C49.9401 47.7845 49.9022 47.3372 49.8642 46.8899Z" fill="#004385"/>
<path d="M49.0047 41.6693L-13.4632 24.9311C-13.7919 25.2741 -14.1123 25.6314 -14.4255 25.9846L49.3113 43.0628C49.2238 42.5962 49.1179 42.1307 49.0047 41.6693Z" fill="#004385"/>
<path d="M47.2275 36.2026L-9.19072 21.0853C-9.61003 21.404 -10.021 21.7371 -10.4207 22.0732L47.7988 37.6731C47.6207 37.1822 47.4313 36.6882 47.2275 36.2026Z" fill="#004385"/>
<path d="M45.0859 31.8463C44.7997 31.3507 44.5034 30.8706 44.204 30.4018L-3.66084 17.5765C-4.16168 17.8369 -4.65837 18.1045 -5.14676 18.3865C-5.18986 18.4114 -5.22577 18.4321 -5.26886 18.457L45.1564 31.9684C45.1285 31.9366 45.1107 31.8894 45.0859 31.8463Z" fill="#004385"/>
<path d="M39.0436 24.0344L3.98047 14.6392C3.19752 14.8423 2.41983 15.071 1.6474 15.3255L40.721 25.7952C40.1793 25.1887 39.6202 24.6017 39.0436 24.0344Z" fill="#004385"/>
<path d="M13.2992 13.4633L31.5728 18.3597C26.0161 15.1709 19.7059 13.48 13.2992 13.4633Z" fill="#004385"/>
</svg>
