<svg width="35" height="111" viewBox="0 0 35 111" fill="none" xmlns="http://www.w3.org/2000/svg">
<path d="M25.0002 5.5C25.0002 8.2614 27.1717 10.5 29.8504 10.5C32.529 10.5 34.7005 8.2614 34.7005 5.5C34.7005 2.7386 32.529 0.5 29.8504 0.5C27.1717 0.5 25.0002 2.7386 25.0002 5.5Z" fill="#004385"/>
<path d="M25.0002 30.5C25.0002 33.2614 27.1717 35.5 29.8504 35.5C32.529 35.5 34.7005 33.2614 34.7005 30.5C34.7005 27.7386 32.529 25.5 29.8504 25.5C27.1717 25.5 25.0002 27.7386 25.0002 30.5Z" fill="#004385"/>
<path d="M25.0002 55.5C25.0002 58.2614 27.1717 60.5 29.8504 60.5C32.529 60.5 34.7005 58.2614 34.7005 55.5C34.7005 52.7386 32.529 50.5 29.8504 50.5C27.1717 50.5 25.0002 52.7386 25.0002 55.5Z" fill="#004385"/>
<path d="M25 80.5001C25 83.2616 27.1715 85.5 29.8502 85.5C32.529 85.5 34.7005 83.2616 34.7005 80.5001C34.7005 77.7387 32.529 75.5 29.8502 75.5C27.1715 75.5 25 77.7387 25 80.5001Z" fill="#004385"/>
<path d="M25.0002 105.5C25.0002 108.261 27.1717 110.5 29.8504 110.5C32.529 110.5 34.7005 108.261 34.7005 105.5C34.7005 102.739 32.529 100.5 29.8504 100.5C27.1717 100.5 25.0002 102.739 25.0002 105.5Z" fill="#004385"/>
<path d="M0.299497 5.50013C0.299497 8.26159 2.47102 10.5 5.14975 10.5C7.82847 10.5 10 8.26159 10 5.50013C10 2.73866 7.82848 0.5 5.14975 0.5C2.47102 0.5 0.299498 2.73866 0.299497 5.50013Z" fill="#004385"/>
<path d="M5.14987 35.5C2.48229 35.5 0.299744 33.25 0.299744 30.5C0.299745 27.75 2.4823 25.5 5.14987 25.5C7.81745 25.5 10 27.75 10 30.5C10 33.25 7.81745 35.5 5.14987 35.5Z" fill="#004385"/>
<path d="M0.299497 55.5001C0.299497 58.2616 2.47102 60.5 5.14975 60.5C7.82848 60.5 10 58.2616 10 55.5001C10 52.7387 7.82848 50.5 5.14975 50.5C2.47102 50.5 0.299498 52.7387 0.299497 55.5001Z" fill="#004385"/>
<path d="M0.299744 80.5C0.299744 83.2614 2.47121 85.5 5.14987 85.5C7.82853 85.5 10 83.2614 10 80.5C10 77.7386 7.82853 75.5 5.14987 75.5C2.47121 75.5 0.299745 77.7386 0.299744 80.5Z" fill="#004385"/>
<path d="M0.299497 105.5C0.299497 108.262 2.47102 110.5 5.14975 110.5C7.82847 110.5 10 108.262 10 105.5C10 102.739 7.82848 100.5 5.14975 100.5C2.47102 100.5 0.299498 102.739 0.299497 105.5Z" fill="#004385"/>
</svg>
