<svg width="205" height="350" viewBox="0 0 205 350" fill="none" xmlns="http://www.w3.org/2000/svg">
<g filter="url(#filter0_d_132_460)">
<path fill-rule="evenodd" clip-rule="evenodd" d="M144.915 115.453C161.808 106.902 181.319 107.757 200.068 110.294C218.291 112.76 234.959 119.498 250.236 129.706C267.88 141.496 296.592 152.222 294.413 173.337C291.985 196.851 250.874 196.056 241.16 217.622C231.512 239.04 262.03 271.763 243.539 286.273C226.273 299.822 205.105 268.242 183.935 262.527C167.834 258.181 146.739 269.313 135.418 257.086C123.944 244.695 137.912 223.908 133.168 207.701C127.725 189.101 103.892 176.972 106.341 157.737C108.809 138.355 127.464 124.286 144.915 115.453Z" fill="#3F8EFC" fill-opacity="0.7" shape-rendering="crispEdges"/>
</g>
<g filter="url(#filter1_d_132_460)">
<path fill-rule="evenodd" clip-rule="evenodd" d="M215.689 79.5036C228.402 92.7209 233.148 111.031 236.12 129.116C239.008 146.691 237.499 164.039 232.382 181.084C226.471 200.77 224.687 230.405 204.514 234.379C182.05 238.805 171.117 200.507 148.389 197.632C125.816 194.776 104.173 232.326 85.4869 219.32C68.0393 207.176 91.2766 178.609 90.5604 157.382C90.0157 141.237 73.7191 124.862 81.829 110.907C90.0478 96.7649 113.262 103.8 126.926 94.8068C142.605 84.4867 147.074 58.9731 165.582 55.7821C184.231 52.5669 202.555 65.849 215.689 79.5036Z" fill="#87BFFF" fill-opacity="0.04" shape-rendering="crispEdges"/>
</g>
<defs>
<filter id="filter0_d_132_460" x="39.1653" y="72.5508" width="276.364" height="269.07" filterUnits="userSpaceOnUse" color-interpolation-filters="sRGB">
<feFlood flood-opacity="0" result="BackgroundImageFix"/>
<feColorMatrix in="SourceAlpha" type="matrix" values="0 0 0 0 0 0 0 0 0 0 0 0 0 0 0 0 0 0 127 0" result="hardAlpha"/>
<feOffset dx="-23" dy="8"/>
<feGaussianBlur stdDeviation="22"/>
<feComposite in2="hardAlpha" operator="out"/>
<feColorMatrix type="matrix" values="0 0 0 0 0 0 0 0 0 0.262745 0 0 0 0 0.521569 0 0 0 0.13 0"/>
<feBlend mode="normal" in2="BackgroundImageFix" result="effect1_dropShadow_132_460"/>
<feBlend mode="normal" in="SourceGraphic" in2="effect1_dropShadow_132_460" result="shape"/>
</filter>
<filter id="filter1_d_132_460" x="25.9787" y="54.2961" width="246.593" height="267.438" filterUnits="userSpaceOnUse" color-interpolation-filters="sRGB">
<feFlood flood-opacity="0" result="BackgroundImageFix"/>
<feColorMatrix in="SourceAlpha" type="matrix" values="0 0 0 0 0 0 0 0 0 0 0 0 0 0 0 0 0 0 127 0" result="hardAlpha"/>
<feOffset dx="-9" dy="43"/>
<feGaussianBlur stdDeviation="22"/>
<feComposite in2="hardAlpha" operator="out"/>
<feColorMatrix type="matrix" values="0 0 0 0 0 0 0 0 0 0.262745 0 0 0 0 0.521569 0 0 0 0.13 0"/>
<feBlend mode="normal" in2="BackgroundImageFix" result="effect1_dropShadow_132_460"/>
<feBlend mode="normal" in="SourceGraphic" in2="effect1_dropShadow_132_460" result="shape"/>
</filter>
</defs>
</svg>
