<svg width="211" height="211" viewBox="0 0 211 211" fill="none" xmlns="http://www.w3.org/2000/svg">
<path d="M182.531 104.975L171.986 144.327C174.954 139.239 177.319 133.836 179.057 128.253L180.617 122.431C181.903 116.727 182.557 110.866 182.531 104.975Z" fill="#004385"/>
<path d="M178.527 80.8525L156.457 163.216C157.738 162.095 158.955 160.931 160.153 159.736L179.988 85.7138C179.547 84.0802 179.075 82.4641 178.527 80.8525Z" fill="#004385"/>
<path d="M172.189 66.8148C172.111 66.6792 172.024 66.5285 171.946 66.3929L143.52 172.433C143.655 172.355 143.806 172.268 143.941 172.19C144.921 171.624 145.868 171.037 146.799 170.459L173.784 69.7508C173.273 68.7605 172.746 67.7789 172.189 66.8148Z" fill="#004385"/>
<path d="M164.348 55.6337L131.575 177.943C132.605 177.57 133.641 177.172 134.645 176.753L166.412 58.1986C165.752 57.3342 165.053 56.4721 164.348 55.6337Z" fill="#004385"/>
<path d="M156.137 47.2577L120.276 181.092C121.255 180.909 122.232 180.687 123.199 180.449L158.347 49.2761C157.613 48.5954 156.878 47.9147 156.137 47.2577Z" fill="#004385"/>
<path d="M147.428 40.6957L109.447 182.443C110.378 182.387 111.325 182.323 112.264 182.243L149.767 42.2776C148.995 41.7395 148.222 41.2014 147.428 40.6957Z" fill="#004385"/>
<path d="M138.317 35.6315L99.0239 182.274C99.9326 182.352 100.833 182.415 101.739 182.454L140.758 36.8332C139.954 36.4139 139.143 36.0183 138.317 35.6315Z" fill="#004385"/>
<path d="M128.849 31.8976L88.9643 180.751C89.8325 180.932 90.7007 181.114 91.5753 181.272L131.371 32.7516C130.543 32.4662 129.692 32.1744 128.849 31.8976Z" fill="#004385"/>
<path d="M119.032 29.4704L79.242 177.967C80.0784 178.267 80.9299 178.559 81.7726 178.836L121.658 29.9831C120.789 29.8014 119.921 29.6196 119.032 29.4704Z" fill="#004385"/>
<path d="M108.885 28.3181L69.8791 173.892C70.6836 174.311 71.4945 174.707 72.3205 175.093L111.592 28.483C110.692 28.4201 109.792 28.3572 108.885 28.3181Z" fill="#004385"/>
<path d="M98.3545 28.5528L60.8827 168.4C61.6554 168.938 62.4281 169.476 63.2223 169.982L101.178 28.3289C100.231 28.3935 99.2928 28.4732 98.3545 28.5528Z" fill="#004385"/>
<path d="M87.4038 30.3557L52.2942 161.386C53.0137 162.076 53.7632 162.748 54.5041 163.405L90.3268 29.7127C89.348 29.8961 88.3715 30.1184 87.4038 30.3557Z" fill="#004385"/>
<path d="M75.937 34.0835L44.2275 152.424C44.896 153.304 45.5947 154.166 46.2997 155.004L79.0214 32.8852C77.9917 33.2587 76.9557 33.656 75.937 34.0835Z" fill="#004385"/>
<path d="M66.7995 38.5757C65.76 39.1758 64.753 39.7974 63.7697 40.4254L36.8677 140.825C37.4139 141.876 37.9752 142.917 38.5667 143.942C38.6189 144.032 38.6624 144.108 38.7146 144.198L67.0556 38.4278C66.989 38.4863 66.8899 38.5235 66.7995 38.5757Z" fill="#004385"/>
<path d="M50.4139 51.2496L30.707 124.797C31.1329 126.439 31.6127 128.07 32.1464 129.691L54.1074 47.7312C52.8351 48.8675 51.6039 50.0403 50.4139 51.2496Z" fill="#004385"/>
<path d="M28.2399 105.25L38.5105 66.9201C31.8216 78.5757 28.275 91.8118 28.2399 105.25Z" fill="#004385"/>
</svg>
