<svg width="60" height="170" viewBox="0 0 60 170" fill="none" xmlns="http://www.w3.org/2000/svg">
<path d="M49.7006 5C49.7006 7.7614 51.8721 10 54.5508 10C57.2294 10 59.4009 7.7614 59.4009 5C59.4009 2.2386 57.2294 -9.49179e-08 54.5508 -2.12006e-07C51.8721 -3.29094e-07 49.7006 2.2386 49.7006 5Z" fill="#004385"/>
<path d="M49.7006 45C49.7006 47.7614 51.8721 50 54.5508 50C57.2294 50 59.4009 47.7614 59.4009 45C59.4009 42.2386 57.2294 40 54.5508 40C51.8721 40 49.7006 42.2386 49.7006 45Z" fill="#004385"/>
<path d="M49.7006 85C49.7006 87.7614 51.8721 90 54.5508 90C57.2294 90 59.4009 87.7614 59.4009 85C59.4009 82.2386 57.2294 80 54.5508 80C51.8721 80 49.7006 82.2386 49.7006 85Z" fill="#004385"/>
<path d="M49.7004 125C49.7004 127.762 51.8719 130 54.5506 130C57.2294 130 59.4009 127.762 59.4009 125C59.4009 122.239 57.2294 120 54.5506 120C51.8719 120 49.7004 122.239 49.7004 125Z" fill="#004385"/>
<path d="M49.7006 165C49.7006 167.761 51.8721 170 54.5508 170C57.2294 170 59.4009 167.761 59.4009 165C59.4009 162.239 57.2294 160 54.5508 160C51.8721 160 49.7006 162.239 49.7006 165Z" fill="#004385"/>
<path d="M-0.000124196 5.00013C-0.000124317 7.76159 2.1714 10 4.85013 10C7.52885 10 9.70038 7.76159 9.70038 5.00013C9.70038 2.23866 7.52885 -9.49204e-08 4.85013 -2.12011e-07C2.1714 -3.29102e-07 -0.000124076 2.23866 -0.000124196 5.00013Z" fill="#004385"/>
<path d="M4.85025 50C2.18267 50 0.000122685 47.75 0.000122805 45C0.000122926 42.25 2.18267 40 4.85025 40C7.51783 40 9.70038 42.25 9.70038 45C9.70038 47.75 7.51783 50 4.85025 50Z" fill="#004385"/>
<path d="M-0.000124196 85.0001C-0.000124317 87.7616 2.1714 90 4.85013 90C7.52885 90 9.70038 87.7616 9.70038 85.0001C9.70038 82.2387 7.52885 80 4.85013 80C2.1714 80 -0.000124076 82.2387 -0.000124196 85.0001Z" fill="#004385"/>
<path d="M0.000122805 125C0.000122685 127.761 2.17159 130 4.85025 130C7.52891 130 9.70038 127.761 9.70038 125C9.70038 122.239 7.52891 120 4.85025 120C2.17159 120 0.000122926 122.239 0.000122805 125Z" fill="#004385"/>
<path d="M-0.000124196 165C-0.000124317 167.762 2.1714 170 4.85013 170C7.52885 170 9.70038 167.762 9.70038 165C9.70038 162.239 7.52885 160 4.85013 160C2.1714 160 -0.000124076 162.239 -0.000124196 165Z" fill="#004385"/>
</svg>
