<svg xmlns="http://www.w3.org/2000/svg" xmlns:xlink="http://www.w3.org/1999/xlink" viewBox="0 0 5555.83 1413.85"><defs><style>.cls-1{fill:#231f20;}.cls-2{fill:url(#New_Gradient_Swatch_copy);}.cls-3{fill:url(#linear-gradient);}.cls-4{fill:url(#linear-gradient-2);}.cls-5{fill:url(#linear-gradient-3);}.cls-6{fill:url(#linear-gradient-4);}.cls-7{fill:url(#linear-gradient-5);}.cls-8{fill:url(#linear-gradient-6);}.cls-9{fill:url(#linear-gradient-7);}.cls-10{fill:url(#linear-gradient-8);}.cls-11{fill:url(#linear-gradient-9);}.cls-12{fill:url(#linear-gradient-10);}.cls-13{fill:url(#linear-gradient-11);}.cls-14{fill:url(#linear-gradient-12);}.cls-15{fill:url(#linear-gradient-13);}.cls-16{fill:url(#linear-gradient-14);}.cls-17{fill:url(#linear-gradient-15);}.cls-18{fill:url(#linear-gradient-16);}.cls-19{fill:url(#linear-gradient-17);}.cls-20{fill:url(#linear-gradient-18);}.cls-21{fill:url(#linear-gradient-19);}.cls-22{fill:url(#linear-gradient-20);}.cls-23{fill:url(#linear-gradient-21);}.cls-24{fill:url(#linear-gradient-22);}.cls-25{fill:url(#linear-gradient-23);}.cls-26{fill:url(#linear-gradient-24);}.cls-27{fill:url(#linear-gradient-25);}.cls-28{fill:url(#linear-gradient-26);}.cls-29{fill:url(#linear-gradient-27);}.cls-30{fill:url(#linear-gradient-28);}.cls-31{fill:url(#linear-gradient-29);}</style><linearGradient id="New_Gradient_Swatch_copy" x1="202.46" y1="2893.89" x2="3922.35" y2="275.09" gradientTransform="translate(146)" gradientUnits="userSpaceOnUse"><stop offset="0" stop-color="#3f3b72"/><stop offset="1" stop-color="#34a6de"/></linearGradient><linearGradient id="linear-gradient" x1="1044" y1="1910.03" x2="294.66" y2="-78.28" gradientTransform="matrix(1, 0, 0, 1, 0, 0)" xlink:href="#New_Gradient_Swatch_copy"/><linearGradient id="linear-gradient-2" x1="434.59" y1="416" x2="505.42" y2="144.27" gradientTransform="matrix(1, 0, 0, 1, 0, 0)" xlink:href="#New_Gradient_Swatch_copy"/><linearGradient id="linear-gradient-3" x1="311.58" y1="414.08" x2="311.58" y2="336.26" gradientTransform="matrix(1, 0, 0, 1, 0, 0)" xlink:href="#New_Gradient_Swatch_copy"/><linearGradient id="linear-gradient-4" x1="311.59" y1="421.76" x2="311.59" y2="356.44" gradientTransform="matrix(1, 0, 0, 1, 0, 0)" xlink:href="#New_Gradient_Swatch_copy"/><linearGradient id="linear-gradient-5" x1="529.95" y1="286.72" x2="529.95" y2="208.9" gradientTransform="translate(-133.99 109.36) rotate(-0.97)" xlink:href="#New_Gradient_Swatch_copy"/><linearGradient id="linear-gradient-6" x1="529.95" y1="294.4" x2="529.95" y2="229.08" gradientTransform="translate(-133.99 109.36) rotate(-0.97)" xlink:href="#New_Gradient_Swatch_copy"/><linearGradient id="linear-gradient-7" x1="12332" y1="414.08" x2="12332" y2="336.26" gradientTransform="matrix(-1, 0, 0, 1, 12921, 0)" xlink:href="#New_Gradient_Swatch_copy"/><linearGradient id="linear-gradient-8" x1="12332.01" y1="421.76" x2="12332.01" y2="356.44" gradientTransform="matrix(-1, 0, 0, 1, 12921, 0)" xlink:href="#New_Gradient_Swatch_copy"/><linearGradient id="linear-gradient-9" x1="12548.66" y1="489.36" x2="12548.66" y2="411.54" gradientTransform="matrix(-1, -0.02, -0.02, 1, 13054.99, 109.36)" xlink:href="#New_Gradient_Swatch_copy"/><linearGradient id="linear-gradient-10" x1="12548.67" y1="497.04" x2="12548.67" y2="431.72" gradientTransform="matrix(-1, -0.02, -0.02, 1, 13054.99, 109.36)" xlink:href="#New_Gradient_Swatch_copy"/><linearGradient id="linear-gradient-11" x1="309.77" y1="533.73" x2="309.77" y2="349.62" gradientTransform="matrix(1, 0, 0, 1, 0, 0)" xlink:href="#New_Gradient_Swatch_copy"/><linearGradient id="linear-gradient-12" x1="592.32" y1="533.73" x2="592.32" y2="349.62" gradientTransform="matrix(1, 0, 0, 1, 0, 0)" xlink:href="#New_Gradient_Swatch_copy"/><linearGradient id="linear-gradient-13" x1="399.1" y1="533.17" x2="399.1" y2="349.05" gradientTransform="matrix(1, 0, 0, 1, 0, 0)" xlink:href="#New_Gradient_Swatch_copy"/><linearGradient id="linear-gradient-14" x1="502.48" y1="533.17" x2="502.48" y2="349.05" gradientTransform="matrix(1, 0, 0, 1, 0, 0)" xlink:href="#New_Gradient_Swatch_copy"/><linearGradient id="linear-gradient-15" x1="478.05" y1="699.96" x2="434.55" y2="466.81" gradientTransform="matrix(1, 0, 0, 1, 0, 0)" xlink:href="#New_Gradient_Swatch_copy"/><linearGradient id="linear-gradient-16" x1="451.63" y1="1396.39" x2="451.63" y2="632.24" gradientTransform="matrix(1, 0, 0, 1, 0, 0)" xlink:href="#New_Gradient_Swatch_copy"/><linearGradient id="linear-gradient-17" x1="445.02" y1="1159.44" x2="445.02" y2="612.99" gradientTransform="matrix(1, 0, 0, 1, 0, 0)" xlink:href="#New_Gradient_Swatch_copy"/><linearGradient id="linear-gradient-18" x1="445.74" y1="921.39" x2="445.74" y2="615.39" gradientTransform="matrix(1, 0, 0, 1, 0, 0)" xlink:href="#New_Gradient_Swatch_copy"/><linearGradient id="linear-gradient-19" x1="213.4" y1="1032.51" x2="438.41" y2="1404.82" gradientTransform="matrix(1, 0, 0, 1, 0, 0)" xlink:href="#New_Gradient_Swatch_copy"/><linearGradient id="linear-gradient-20" x1="454.2" y1="1583.52" x2="26.21" y2="953.73" gradientTransform="matrix(1, 0, 0, 1, 0, 0)" xlink:href="#New_Gradient_Swatch_copy"/><linearGradient id="linear-gradient-21" x1="10999" y1="1032.51" x2="11224.01" y2="1404.82" gradientTransform="matrix(-1, 0, 0, 1, 11685.67, 0)" xlink:href="#New_Gradient_Swatch_copy"/><linearGradient id="linear-gradient-22" x1="11239.79" y1="1583.52" x2="10811.81" y2="953.73" gradientTransform="matrix(-1, 0, 0, 1, 11685.67, 0)" xlink:href="#New_Gradient_Swatch_copy"/><linearGradient id="linear-gradient-23" x1="165.77" y1="544.76" x2="-2.29" y2="599.83" gradientTransform="matrix(1, 0, 0, 1, 0, 0)" xlink:href="#New_Gradient_Swatch_copy"/><linearGradient id="linear-gradient-24" x1="152.5" y1="360.45" x2="12.47" y2="315.2" gradientTransform="matrix(1, 0, 0, 1, 0, 0)" xlink:href="#New_Gradient_Swatch_copy"/><linearGradient id="linear-gradient-25" x1="263.45" y1="199.95" x2="183.36" y2="91.74" gradientTransform="matrix(1, 0, 0, 1, 0, 0)" xlink:href="#New_Gradient_Swatch_copy"/><linearGradient id="linear-gradient-26" x1="449.24" y1="141.61" x2="449.24" y2="3.39" gradientTransform="matrix(1, 0, 0, 1, 0, 0)" xlink:href="#New_Gradient_Swatch_copy"/><linearGradient id="linear-gradient-27" x1="641.23" y1="198.25" x2="717.65" y2="83.32" gradientTransform="matrix(1, 0, 0, 1, 0, 0)" xlink:href="#New_Gradient_Swatch_copy"/><linearGradient id="linear-gradient-28" x1="765.14" y1="352.64" x2="894.75" y2="301.9" gradientTransform="matrix(1, 0, 0, 1, 0, 0)" xlink:href="#New_Gradient_Swatch_copy"/><linearGradient id="linear-gradient-29" x1="777.89" y1="546.96" x2="911.81" y2="584.26" gradientTransform="matrix(1, 0, 0, 1, 0, 0)" xlink:href="#New_Gradient_Swatch_copy"/></defs><g id="Layer_2" data-name="Layer 2"><g id="Layer_1-2" data-name="Layer 1"><path class="cls-1" d="M1609.66,1274.36V973.69l-129.61,196.72h-2.63L1349.13,975.67v298.69h-100V813.82h109.21l121.06,194.74,121-194.74h109.22v460.54Z"/><path class="cls-1" d="M1820.2,1274.36V813.82h346.72V904H1920.2v93.43h217.11v90.13H1920.2v96.71h250v90.14Z"/><path class="cls-1" d="M2540.61,1274.36,2441.93,1127h-79.61v147.37H2261V813.82h210.53q82.23,0,128,40.13t45.72,111.85v1.31q0,55.93-27.3,91.12t-71.39,51.65L2659,1274.36Zm2-303.3q0-32.89-21.06-49.34T2463,905.27H2362.32v132.24H2465q37.5,0,57.57-17.76t20.07-47.37Z"/><path class="cls-1" d="M3104.44,1234.23a218.59,218.59,0,0,1-41.77,26,216.28,216.28,0,0,1-49.68,16.45q-27,5.58-60.53,5.59-50.67,0-94.08-18.42t-75-50.33a229.11,229.11,0,0,1-49.34-75.33q-17.77-43.43-17.77-92.77v-1.31q0-49.35,17.77-92.44A237.75,237.75,0,0,1,2783.38,876Q2815,843.43,2859,824.67t97.37-18.75a304.41,304.41,0,0,1,58.88,5.27,245.42,245.42,0,0,1,48.36,14.47A210.43,210.43,0,0,1,3103.79,848,272.62,272.62,0,0,1,3138,877l-64.48,74.34q-27-24.33-54.93-38.16t-62.84-13.81a128.43,128.43,0,0,0-53.62,11.18,127.1,127.1,0,0,0-42.43,30.92,144.06,144.06,0,0,0-27.63,45.73,155.29,155.29,0,0,0-9.87,55.59v1.32a157.89,157.89,0,0,0,9.87,55.92,146.18,146.18,0,0,0,27.3,46.06,127.28,127.28,0,0,0,42.11,31.25q24.66,11.52,54.27,11.51,39.48,0,66.78-14.47t54.28-39.48l64.48,65.13A334,334,0,0,1,3104.44,1234.23Z"/><path class="cls-1" d="M3602.15,1165.15Q3588,1204,3561.69,1230t-63.82,38.82q-37.5,12.82-83.55,12.83-92.78,0-146.06-51.32T3215,1077V813.82h101.32v260.53q0,56.6,26.31,85.2t73,28.62q46.71,0,73-27.63t26.32-82.9V813.82H3616.3v259.87Q3616.3,1126.34,3602.15,1165.15Z"/><path class="cls-1" d="M4040.08,1199a125,125,0,0,1-34.65,44.74q-22.23,18.11-53,27.63t-68.32,9.54a305.27,305.27,0,0,1-103.3-18.09q-50.67-18.09-92.1-55.6l59.87-71.71q31.58,25.65,64.8,40.79t72.7,15.13q31.58,0,49-11.51t17.43-31.91v-1.32a39.84,39.84,0,0,0-3.63-17.43q-3.63-7.56-13.86-14.15T3906.64,1102q-18.15-6.57-47.16-13.82a575.26,575.26,0,0,1-63.34-19.08q-28.36-10.52-48.15-26a104.88,104.88,0,0,1-30.67-38.49q-10.89-23-10.89-57.23v-1.32q0-31.57,11.76-56.91a129.44,129.44,0,0,1,33-43.75q21.24-18.42,50.74-28.29t65-9.87q50.65,0,93.1,15.13a270.21,270.21,0,0,1,78,43.42l-52.63,76.32q-30.94-21-60.53-33.22t-59.22-12.18q-29.59,0-44.4,11.52t-14.81,28.62v1.31q0,11.21,4.29,19.41t15.5,14.81q11.22,6.57,30.68,12.5T3906,998.69a472.82,472.82,0,0,1,62.34,20.73q27.38,11.52,46.18,27.63a105.4,105.4,0,0,1,28.36,37.83q9.57,21.7,9.57,52v1.32Q4052.49,1172.39,4040.08,1199Z"/><path class="cls-1" d="M4520.6,1165.15q-14.15,38.82-40.46,64.8t-63.82,38.82q-37.5,12.82-83.55,12.83-92.78,0-146.06-51.32T4133.42,1077V813.82h101.32v260.53q0,56.6,26.31,85.2t73,28.62q46.71,0,73-27.63t26.32-82.9V813.82h101.32v259.87Q4534.75,1126.34,4520.6,1165.15Z"/><path class="cls-1" d="M4980.81,1274.36l-42.1-103.29H4744l-42.1,103.29h-103.3l197.38-463.83h93.42l197.38,463.83ZM4841.33,932.24l-61.18,149.35h122.37Z"/><path class="cls-1" d="M5437.4,1274.36,5338.71,1127h-79.6v147.37H5157.79V813.82h210.53q82.23,0,128,40.13T5542,965.8v1.31q0,55.93-27.3,91.12t-71.39,51.65l112.51,164.48Zm2-303.3q0-32.89-21.06-49.34t-58.55-16.45H5259.11v132.24h102.63q37.5,0,57.57-17.76t20.07-47.37Z"/><path class="cls-1" d="M1598.35,619.12h-57.62l-156.56-197.3-86.71,87.89V619.12h-46V211.72h46V455l234-243.28h59.37L1416.18,389.81Z"/><path class="cls-1" d="M2126.81,619.12h-49.47l-47.72-107.67H1807.87l-48.3,107.67h-47.14l185.65-410.31h43.07ZM1919,262.94l-93.12,207.77h185.65Z"/><path class="cls-1" d="M2515.15,219q24.39,7.27,41.82,20.37a88.55,88.55,0,0,1,26.73,32q9.28,18.92,9.29,42.19,0,20.39-5.52,35.5a93.92,93.92,0,0,1-14.81,26.77,97.23,97.23,0,0,1-20.6,19.5,133.73,133.73,0,0,1-23.52,13.1,180.76,180.76,0,0,1,34,13.67,113.91,113.91,0,0,1,27.6,20.08,88.06,88.06,0,0,1,18.59,27.94q7,16.31,7,37.25,0,26.19-10.46,47.14a96.8,96.8,0,0,1-29.92,35.21q-19.47,14.26-46.77,21.82t-60.42,7.57H2287.44V211.72h173.11Q2490.75,211.72,2515.15,219Zm5.74,155.61Q2547,355.91,2547,319.67q0-31-23.22-49.09t-66.74-18.12H2333.42V393.3h120.14Q2494.78,393.3,2520.89,374.61ZM2543,559.1q26.72-19.29,26.71-54.35,0-33.88-27.29-52.3t-80.7-18.4h-128.3V578.38h136.43Q2516.29,578.38,2543,559.1Z"/><path class="cls-1" d="M2838,211.72v407.4h-46V211.72Z"/><path class="cls-1" d="M3337.35,211.72h44.81v407.4H3345.5L3082.43,285.05V619.12h-44.81V211.72h43.07l256.66,326.5Z"/><path class="cls-1" d="M3872.21,253.63H3623.69V392.72H3846v41.91H3623.69V577.22h251.43v41.9H3577.71V211.72h294.5Z"/><path class="cls-1" d="M4201.62,619.12h-46V254.21H4018.87V211.72h319.52v42.49H4201.62Z"/><path class="cls-2" d="M1609.66,1274.36V973.69l-129.61,196.72h-2.63L1349.13,975.67v298.69h-100V813.82h109.21l121.06,194.74,121-194.74h109.22v460.54Z"/><path class="cls-2" d="M1820.2,1274.36V813.82h346.72V904H1920.2v93.43h217.11v90.13H1920.2v96.71h250v90.14Z"/><path class="cls-2" d="M2540.61,1274.36,2441.93,1127h-79.61v147.37H2261V813.82h210.53q82.23,0,128,40.13t45.72,111.85v1.31q0,55.93-27.3,91.12t-71.39,51.65L2659,1274.36Zm2-303.3q0-32.89-21.06-49.34T2463,905.27H2362.32v132.24H2465q37.5,0,57.57-17.76t20.07-47.37Z"/><path class="cls-2" d="M3104.44,1234.23a218.59,218.59,0,0,1-41.77,26,216.28,216.28,0,0,1-49.68,16.45q-27,5.58-60.53,5.59-50.67,0-94.08-18.42t-75-50.33a229.11,229.11,0,0,1-49.34-75.33q-17.77-43.43-17.77-92.77v-1.31q0-49.35,17.77-92.44A237.75,237.75,0,0,1,2783.38,876Q2815,843.43,2859,824.67t97.37-18.75a304.41,304.41,0,0,1,58.88,5.27,245.42,245.42,0,0,1,48.36,14.47A210.43,210.43,0,0,1,3103.79,848,272.62,272.62,0,0,1,3138,877l-64.48,74.34q-27-24.33-54.93-38.16t-62.84-13.81a128.43,128.43,0,0,0-53.62,11.18,127.1,127.1,0,0,0-42.43,30.92,144.06,144.06,0,0,0-27.63,45.73,155.29,155.29,0,0,0-9.87,55.59v1.32a157.89,157.89,0,0,0,9.87,55.92,146.18,146.18,0,0,0,27.3,46.06,127.28,127.28,0,0,0,42.11,31.25q24.66,11.52,54.27,11.51,39.48,0,66.78-14.47t54.28-39.48l64.48,65.13A334,334,0,0,1,3104.44,1234.23Z"/><path class="cls-2" d="M3602.15,1165.15Q3588,1204,3561.69,1230t-63.82,38.82q-37.5,12.82-83.55,12.83-92.78,0-146.06-51.32T3215,1077V813.82h101.32v260.53q0,56.6,26.31,85.2t73,28.62q46.71,0,73-27.63t26.32-82.9V813.82H3616.3v259.87Q3616.3,1126.34,3602.15,1165.15Z"/><path class="cls-2" d="M4040.08,1199a125,125,0,0,1-34.65,44.74q-22.23,18.11-53,27.63t-68.32,9.54a305.27,305.27,0,0,1-103.3-18.09q-50.67-18.09-92.1-55.6l59.87-71.71q31.58,25.65,64.8,40.79t72.7,15.13q31.58,0,49-11.51t17.43-31.91v-1.32a39.84,39.84,0,0,0-3.63-17.43q-3.63-7.56-13.86-14.15T3906.64,1102q-18.15-6.57-47.16-13.82a575.26,575.26,0,0,1-63.34-19.08q-28.36-10.52-48.15-26a104.88,104.88,0,0,1-30.67-38.49q-10.89-23-10.89-57.23v-1.32q0-31.57,11.76-56.91a129.44,129.44,0,0,1,33-43.75q21.24-18.42,50.74-28.29t65-9.87q50.65,0,93.1,15.13a270.21,270.21,0,0,1,78,43.42l-52.63,76.32q-30.94-21-60.53-33.22t-59.22-12.18q-29.59,0-44.4,11.52t-14.81,28.62v1.31q0,11.21,4.29,19.41t15.5,14.81q11.22,6.57,30.68,12.5T3906,998.69a472.82,472.82,0,0,1,62.34,20.73q27.38,11.52,46.18,27.63a105.4,105.4,0,0,1,28.36,37.83q9.57,21.7,9.57,52v1.32Q4052.49,1172.39,4040.08,1199Z"/><path class="cls-2" d="M4520.6,1165.15q-14.15,38.82-40.46,64.8t-63.82,38.82q-37.5,12.82-83.55,12.83-92.78,0-146.06-51.32T4133.42,1077V813.82h101.32v260.53q0,56.6,26.31,85.2t73,28.62q46.71,0,73-27.63t26.32-82.9V813.82h101.32v259.87Q4534.75,1126.34,4520.6,1165.15Z"/><path class="cls-2" d="M4980.81,1274.36l-42.1-103.29H4744l-42.1,103.29h-103.3l197.38-463.83h93.42l197.38,463.83ZM4841.33,932.24l-61.18,149.35h122.37Z"/><path class="cls-2" d="M5437.4,1274.36,5338.71,1127h-79.6v147.37H5157.79V813.82h210.53q82.23,0,128,40.13T5542,965.8v1.31q0,55.93-27.3,91.12t-71.39,51.65l112.51,164.48Zm2-303.3q0-32.89-21.06-49.34t-58.55-16.45H5259.11v132.24h102.63q37.5,0,57.57-17.76t20.07-47.37Z"/><path class="cls-2" d="M1598.35,619.12h-57.62l-156.56-197.3-86.71,87.89V619.12h-46V211.72h46V455l234-243.28h59.37L1416.18,389.81Z"/><path class="cls-2" d="M2126.81,619.12h-49.47l-47.72-107.67H1807.87l-48.3,107.67h-47.14l185.65-410.31h43.07ZM1919,262.94l-93.12,207.77h185.65Z"/><path class="cls-2" d="M2515.15,219q24.39,7.27,41.82,20.37a88.55,88.55,0,0,1,26.73,32q9.28,18.92,9.29,42.19,0,20.39-5.52,35.5a93.92,93.92,0,0,1-14.81,26.77,97.23,97.23,0,0,1-20.6,19.5,133.73,133.73,0,0,1-23.52,13.1,180.76,180.76,0,0,1,34,13.67,113.91,113.91,0,0,1,27.6,20.08,88.06,88.06,0,0,1,18.59,27.94q7,16.31,7,37.25,0,26.19-10.46,47.14a96.8,96.8,0,0,1-29.92,35.21q-19.47,14.26-46.77,21.82t-60.42,7.57H2287.44V211.72h173.11Q2490.75,211.72,2515.15,219Zm5.74,155.61Q2547,355.91,2547,319.67q0-31-23.22-49.09t-66.74-18.12H2333.42V393.3h120.14Q2494.78,393.3,2520.89,374.61ZM2543,559.1q26.72-19.29,26.71-54.35,0-33.88-27.29-52.3t-80.7-18.4h-128.3V578.38h136.43Q2516.29,578.38,2543,559.1Z"/><path class="cls-2" d="M2838,211.72v407.4h-46V211.72Z"/><path class="cls-2" d="M3337.35,211.72h44.81v407.4H3345.5L3082.43,285.05V619.12h-44.81V211.72h43.07l256.66,326.5Z"/><path class="cls-2" d="M3872.21,253.63H3623.69V392.72H3846v41.91H3623.69V577.22h251.43v41.9H3577.71V211.72h294.5Z"/><path class="cls-2" d="M4201.62,619.12h-46V254.21H4018.87V211.72h319.52v42.49H4201.62Z"/><path class="cls-3" d="M669,341.37c-33.28-23.73-95.84-25.42-174.33-30.13-13.84-.82-28.09-1.27-42.62-1.27s-28.79.45-42.62,1.27c-74.07,4.45-139.55,4.45-174.34,26.18,48.7-36,203-154.53,214-154.53C462.29,182.89,645.72,324.15,669,341.37Z"/><ellipse class="cls-4" cx="449.24" cy="359.8" rx="231.65" ry="60.36"/><path class="cls-5" d="M336,385.56v.3c-.31,7.16-11.51,12.36-25,11.61s-24.2-7.16-23.9-14.32a7.83,7.83,0,0,1,2.19-5c3.92-4.42,12.73-7.19,22.83-6.63,9.71.54,18,4,21.72,8.55A8.56,8.56,0,0,1,336,385.56Z"/><path class="cls-6" d="M336,375.14v10.42a8.56,8.56,0,0,0-2.18-5.45c-3.76-4.55-12-8-21.72-8.55-10.1-.56-18.91,2.21-22.83,6.63a7.83,7.83,0,0,0-2.19,5V372.43c.3-7.15,11.5-12.34,25-11.58S336.35,368,336,375.14Z"/><path class="cls-7" d="M424.69,358.17v.3c-.19,7.16-11.3,12.55-24.83,12s-24.32-6.75-24.13-13.91a7.8,7.8,0,0,1,2.1-5c3.84-4.48,12.61-7.41,22.71-7,9.72.37,18,3.69,21.87,8.18A8.54,8.54,0,0,1,424.69,358.17Z"/><path class="cls-8" d="M424.52,347.76l.17,10.41a8.54,8.54,0,0,0-2.27-5.41c-3.83-4.49-12.15-7.81-21.87-8.18-10.1-.4-18.87,2.53-22.71,7a7.8,7.8,0,0,0-2.1,5l-.18-10.72c.17-7.16,11.29-12.53,24.81-12S424.71,340.59,424.52,347.76Z"/><path class="cls-9" d="M564.54,385.56v.3c.31,7.16,11.51,12.36,25,11.61s24.21-7.16,23.9-14.32a7.86,7.86,0,0,0-2.18-5c-3.93-4.42-12.74-7.19-22.84-6.63-9.71.54-18,4-21.72,8.55A8.56,8.56,0,0,0,564.54,385.56Z"/><path class="cls-10" d="M564.54,375.14v10.42a8.56,8.56,0,0,1,2.18-5.45c3.76-4.55,12-8,21.72-8.55,10.1-.56,18.91,2.21,22.84,6.63a7.86,7.86,0,0,1,2.18,5V372.43c-.3-7.15-11.5-12.34-25-11.58S564.23,368,564.54,375.14Z"/><path class="cls-11" d="M475.89,358.17v.3c.19,7.16,11.3,12.55,24.83,12s24.32-6.75,24.13-13.91a7.8,7.8,0,0,0-2.1-5c-3.84-4.48-12.61-7.41-22.71-7-9.72.37-18,3.69-21.87,8.18A8.54,8.54,0,0,0,475.89,358.17Z"/><path class="cls-12" d="M476.06,347.76l-.17,10.41a8.54,8.54,0,0,1,2.27-5.41c3.84-4.49,12.15-7.81,21.87-8.18,10.1-.4,18.87,2.53,22.71,7a7.8,7.8,0,0,1,2.1,5l.18-10.72c-.17-7.16-11.28-12.53-24.81-12S475.88,340.59,476.06,347.76Z"/><path class="cls-13" d="M329.47,388.4c.09-5-7.74-9.32-17.48-9.67-9.46-.34-17.22,3.2-17.76,8h0l0,.43v0l-1.44,43.27-1.24,37.44-1.43,43.09,35.26,2.26,2.38-71.55,1.26-38,.48-14.67h0A5.51,5.51,0,0,0,329.47,388.4Z"/><path class="cls-14" d="M610.59,467.85l-1.24-37.44-1.44-43.27v-.45h0c-.54-4.76-8.31-8.3-17.77-8-9.74.35-17.56,4.68-17.47,9.67a3.68,3.68,0,0,0,.06.57h0l.48,14.67,1.27,38,2.37,71.55L612,510.94Z"/><path class="cls-15" d="M417.45,360.33c0-5-7.95-9-17.7-8.92-9.45.06-17.14,3.92-17.57,8.72h0v.44l-.48,43.23-.5,43.06-.41,37.62,35.28.77.68-60,.48-43.28.24-21.09h-.05A3.7,3.7,0,0,0,417.45,360.33Z"/><path class="cls-16" d="M520.41,446.86l-.49-43.06-.48-43.23v-.44h0c-.43-4.8-8.12-8.66-17.58-8.72-9.75-.07-17.66,3.92-17.69,8.92a5.51,5.51,0,0,0,.06.57h-.05l.24,21.09.48,43.28.69,60,35.28-.77Z"/><path class="cls-17" d="M694.23,562.89c-.32,29.48-36.11,55.71-91.76,72.71h0c-14-18.26-76.23-32-150.82-32s-136.63,13.73-150.78,32l0-.39-.06,0c-54.73-17-89.81-43-90.13-72.22.19-21,18-40.47,47.94-56.14l.12-.05c15.76-8.12,34.85-15.23,56.52-21l0-.27c39-10.52,86.24-16.67,137.17-16.67,50.18,0,96.78,6,135.42,16.2l0,.29c22.05,5.77,41.51,12.9,57.55,21.08.89.46,1.79.92,2.68,1.4C677,523.23,694.05,542.29,694.23,562.89Z"/><path class="cls-18" d="M613.14,828.94c-15.16,24.09-54.21,79-168.6,104l-.12,0a51.26,51.26,0,0,0-5.71,1.24l-.08,0c-92.8,20.76-141.21,93.11-161.73,134l13.36,13.33c12,12,22.78,24.34,33.21,36.31,9.84,11.29,19.12,22,29,31.85l.06.06c4.07,4.1,8.26,8,12.44,11.71l3.95,3.42c4,3.46,8.14,7,12.23,10.64a360,360,0,0,1,28.75,27.7c2.71,2.94,5.45,6.13,8.18,9.48,4.91,6,9.45,12.13,13.48,18.2a221.23,221.23,0,0,1,13.84,23.89c1.76,3.49,3.46,7.17,5.36,11.61l0,0v0l.57,1.35h.52c.19-.45.37-.91.56-1.35l0,0v0c1.9-4.44,3.62-8.12,5.38-11.61a219.42,219.42,0,0,1,13.82-23.89c4.05-6.07,8.58-12.19,13.48-18.21,2.73-3.34,5.49-6.53,8.18-9.47a365.14,365.14,0,0,1,28.74-27.7c4.1-3.59,8.25-7.18,12.26-10.64l3.93-3.42c4.2-3.66,8.38-7.61,12.44-11.71l.07-.06c9.87-9.9,19.17-20.56,29-31.85,10.42-12,21.19-24.33,33.19-36.31l13.38-13.34ZM502.8,1086a9.9,9.9,0,0,1-9.79,10H410.24a9.9,9.9,0,0,1-9.78-10v-84.71c0-29.14,22.82-52.8,51.17-53.24,28.34.44,51.17,24.1,51.17,53.24Zm99.59-451.58c-14.13-18.24-76.26-32-150.76-32s-136.63,13.73-150.77,32l0,.72h.06l0,.39c14.15-18.22,76.28-32,150.77-32s136.79,13.77,150.83,32Z"/><path class="cls-19" d="M603.2,649l-.31-5.85-.41-7.26c-3,5.75-33.77,59.66-163.49,90.11l-3.85.91C352.88,745.79,308.8,809.89,289,849l-12.1,219.21c20.52-40.92,68.93-113.27,161.73-134l.08,0a51.26,51.26,0,0,1,5.71-1.24l.12,0c114.39-25,153.44-79.88,168.6-104Zm-109.44,201a8.22,8.22,0,0,1-8.11,8.31h-68a8.22,8.22,0,0,1-8.1-8.31v-70c0-24,18.76-43.52,42.13-44,23.36.44,42.13,20,42.13,44Z"/><path class="cls-20" d="M602.48,635.93c-3,5.75-33.77,59.67-163.5,90.12l-3.84.9C352.88,745.79,308.8,809.89,289,849l11.05-200,.77-13.94.06,0,0,.39c14.15-18.23,76.28-32,150.78-32s136.78,13.77,150.82,32h0Z"/><path class="cls-21" d="M434,1379.53l-1.24,34.32c1.66-46-90.73-107.41-125.31-144.55-2-2.29-4.2-4.45-5.17-5.62-23.48-28.08-44.12-57.7-49.52-95.63-3-21.49.38-41.83,10.08-62.8,22.3,22.25,40.78,46.69,62.17,68.12q6.69,6.75,13.85,13c5.37,4.65,10.74,9.29,16.09,14A333.48,333.48,0,0,1,381.62,1226c2.51,2.75,4.92,5.56,7.24,8.39,4.29,5.26,8.3,10.65,11.95,16.15A191.18,191.18,0,0,1,413,1271.66c1.7,3.37,3.24,6.77,4.72,10.21s2.88,7,4.15,10.59a203.43,203.43,0,0,1,9.9,40c1.06,7.08,1.75,14.26,2.14,21.58C434.35,1362.41,434.39,1370.9,434,1379.53Z"/><path class="cls-22" d="M415,1413.21l0-.06h0c-1.08,0-2.24,0-3.46-.07-3.71-.13-8.08-.44-13.25-.82-61.55-4.62-117.46-21.13-166.07-50.77-35.17-21.45-66.55-49.75-93.53-85.41-80.85-106.89-96.86-225.34-49-351.37,2.72-7.08,7.43-24.4,7.43-24.4s5.88,15,10.14,26.13c8.54,22.21,12.52,38.51,14.06,55.14,3,32.54,5.59,49.92,13.21,81.93,10.23,42.9,24.52,83.85,49.16,120.07a245.14,245.14,0,0,0,15.89,21c24.22,28.62,53,50.38,87.07,63.93q8.31,3.33,17,6l.38.12,3.67,1.07.28.09,8.21,2.41c39.25,37.52,118,93.17,116.47,135.68Z"/><path class="cls-23" d="M466.08,1379.53l1.25,34.32c-1.67-46,90.72-107.41,125.3-144.55,2-2.29,4.2-4.45,5.18-5.62,23.47-28.08,44.12-57.7,49.52-95.63,3-21.49-.38-41.83-10.09-62.8-22.3,22.25-40.77,46.69-62.17,68.12q-6.69,6.75-13.85,13c-5.36,4.65-10.74,9.29-16.09,14A333.48,333.48,0,0,0,518.45,1226c-2.51,2.75-4.92,5.56-7.23,8.39-4.3,5.26-8.31,10.65-12,16.15a191.09,191.09,0,0,0-12.2,21.08c-1.71,3.37-3.25,6.77-4.73,10.21s-2.87,7-4.15,10.59a204.14,204.14,0,0,0-9.9,40c-1.06,7.08-1.75,14.26-2.13,21.58C465.72,1362.41,465.68,1370.9,466.08,1379.53Z"/><path class="cls-24" d="M485.06,1413.21l0-.06h0c1.07,0,2.23,0,3.45-.07,3.72-.13,8.09-.44,13.26-.82,61.54-4.62,117.45-21.13,166.06-50.77,35.18-21.45,66.55-49.75,93.54-85.41,80.84-106.89,96.85-225.34,49-351.37-2.71-7.08-7.42-24.4-7.42-24.4s-5.88,15-10.15,26.13c-8.54,22.21-12.51,38.51-14.06,55.14-3,32.54-5.59,49.92-13.21,81.93-10.22,42.9-24.52,83.85-49.15,120.07a247.36,247.36,0,0,1-15.9,21c-24.21,28.62-53,50.38-87.07,63.93q-8.31,3.33-17,6l-.39.12-3.67,1.07-.28.09-8.21,2.41c-39.25,37.52-118,93.17-116.46,135.68Z"/><path class="cls-25" d="M106.16,559.37c9.71-.92,13.47,12.31,4.72,16.63L60.54,600.84,22.4,619.66a8.77,8.77,0,0,1-12.24-5.12c-.08-.24-.16-.47-.23-.71l-.06,0q-5.52-17-9.68-34.3H.27l0-.1A8.77,8.77,0,0,1,8,568.67l42.32-4Z"/><path class="cls-26" d="M117.62,342.36c8.49,4.82,4,17.82-5.67,16.33l-55.48-8.52-42-6.46a8.79,8.79,0,0,1-7.09-11.22c.07-.24.15-.47.22-.71l-.06,0q5.24-17.1,11.74-33.65l.08,0,0-.09a8.77,8.77,0,0,1,12.51-4.39l37,21Z"/><path class="cls-27" d="M251.49,171.18c4.18,8.81-7,16.87-14,10.12l-40.56-38.81-30.73-29.4a8.79,8.79,0,0,1,.63-13.26l.59-.45,0,0q14.1-11,28.92-20.83l0,.07.08,0a8.78,8.78,0,0,1,12.76,3.57l18.24,38.4Z"/><path class="cls-28" d="M459.33,107.73c-1.63,9.62-15.38,9.82-17.29.25l-11-55-8.31-41.71A8.78,8.78,0,0,1,430.89.72l.74,0V.62q17.85-.93,35.63-.47V.23h.1a8.77,8.77,0,0,1,8.4,10.25l-7.07,41.91Z"/><path class="cls-29" d="M666,175c-6.85,6.95-18.23-.78-14.3-9.71l22.59-51.38,17.12-38.94A8.79,8.79,0,0,1,704.05,71l.63.39,0,0q15.15,9.48,29.46,20l-.06.07.08.06a8.77,8.77,0,0,1,1,13.21L705.37,135Z"/><path class="cls-30" d="M796.68,348.58c-9.6,1.76-14.49-11.1-6.15-16.16l48-29.13,36.36-22.08a8.79,8.79,0,0,1,12.64,4c.09.23.19.46.29.69l.05,0q7,16.47,12.64,33.33h-.08l0,.1a8.77,8.77,0,0,1-6.76,11.4l-41.81,7.69Z"/><path class="cls-31" d="M804.17,565.76c-8.87-4.06-5.51-17.4,4.23-16.77l56,3.66,42.45,2.77a8.78,8.78,0,0,1,8,10.56l-.15.73h.06q-3.72,17.49-8.76,34.55l-.08,0,0,.1a8.78,8.78,0,0,1-12.08,5.46L855.2,589.11Z"/></g></g></svg>