<svg xmlns="http://www.w3.org/2000/svg" xmlns:xlink="http://www.w3.org/1999/xlink" viewBox="0 0 929.92 1436.77"><defs><style>.cls-1{fill:url(#linear-gradient);}.cls-2{fill:url(#linear-gradient-2);}.cls-3{fill:url(#linear-gradient-3);}.cls-4{fill:url(#linear-gradient-4);}.cls-5{fill:url(#linear-gradient-5);}.cls-6{fill:url(#linear-gradient-6);}.cls-7{fill:url(#linear-gradient-7);}.cls-8{fill:url(#linear-gradient-8);}.cls-9{fill:url(#linear-gradient-9);}.cls-10{fill:url(#linear-gradient-10);}.cls-11{fill:url(#linear-gradient-11);}.cls-12{fill:url(#linear-gradient-12);}.cls-13{fill:url(#linear-gradient-13);}.cls-14{fill:url(#linear-gradient-14);}.cls-15{fill:url(#linear-gradient-15);}.cls-16{fill:url(#linear-gradient-16);}.cls-17{fill:url(#linear-gradient-17);}.cls-18{fill:url(#linear-gradient-18);}.cls-19{fill:url(#linear-gradient-19);}.cls-20{fill:url(#linear-gradient-20);}.cls-21{fill:url(#linear-gradient-21);}.cls-22{fill:url(#linear-gradient-22);}.cls-23{fill:url(#linear-gradient-23);}.cls-24{fill:url(#linear-gradient-24);}.cls-25{fill:url(#linear-gradient-25);}.cls-26{fill:url(#linear-gradient-26);}.cls-27{fill:url(#linear-gradient-27);}.cls-28{fill:url(#linear-gradient-28);}.cls-29{fill:url(#linear-gradient-29);}</style><linearGradient id="linear-gradient" x1="1060.92" y1="1941" x2="299.43" y2="-79.55" gradientUnits="userSpaceOnUse"><stop offset="0" stop-color="#3f3b72"/><stop offset="1" stop-color="#34a6de"/></linearGradient><linearGradient id="linear-gradient-2" x1="441.63" y1="422.74" x2="513.61" y2="146.6" xlink:href="#linear-gradient"/><linearGradient id="linear-gradient-3" x1="316.63" y1="420.8" x2="316.63" y2="341.71" xlink:href="#linear-gradient"/><linearGradient id="linear-gradient-4" x1="316.64" y1="428.6" x2="316.64" y2="362.22" xlink:href="#linear-gradient"/><linearGradient id="linear-gradient-5" x1="497.09" y1="350.48" x2="497.09" y2="271.39" gradientTransform="translate(-95.71 51.33) rotate(-0.97)" xlink:href="#linear-gradient"/><linearGradient id="linear-gradient-6" x1="497.09" y1="358.28" x2="497.09" y2="291.9" gradientTransform="translate(-95.71 51.33) rotate(-0.97)" xlink:href="#linear-gradient"/><linearGradient id="linear-gradient-7" x1="5477.52" y1="420.8" x2="5477.52" y2="341.71" gradientTransform="matrix(-1, 0, 0, 1, 6076.07, 0)" xlink:href="#linear-gradient"/><linearGradient id="linear-gradient-8" x1="5477.53" y1="428.6" x2="5477.53" y2="362.22" gradientTransform="matrix(-1, 0, 0, 1, 6076.07, 0)" xlink:href="#linear-gradient"/><linearGradient id="linear-gradient-9" x1="5657.24" y1="437.48" x2="5657.24" y2="358.39" gradientTransform="matrix(-1, -0.02, -0.02, 1, 6171.79, 51.33)" xlink:href="#linear-gradient"/><linearGradient id="linear-gradient-10" x1="5657.25" y1="445.28" x2="5657.25" y2="378.9" gradientTransform="matrix(-1, -0.02, -0.02, 1, 6171.79, 51.33)" xlink:href="#linear-gradient"/><linearGradient id="linear-gradient-11" x1="314.79" y1="542.39" x2="314.79" y2="355.29" xlink:href="#linear-gradient"/><linearGradient id="linear-gradient-12" x1="601.92" y1="542.39" x2="601.92" y2="355.29" xlink:href="#linear-gradient"/><linearGradient id="linear-gradient-13" x1="405.57" y1="541.81" x2="405.57" y2="354.71" xlink:href="#linear-gradient"/><linearGradient id="linear-gradient-14" x1="510.63" y1="541.81" x2="510.63" y2="354.71" xlink:href="#linear-gradient"/><linearGradient id="linear-gradient-15" x1="485.8" y1="711.31" x2="441.59" y2="474.37" xlink:href="#linear-gradient"/><linearGradient id="linear-gradient-16" x1="458.96" y1="1419.03" x2="458.96" y2="642.49" xlink:href="#linear-gradient"/><linearGradient id="linear-gradient-17" x1="452.23" y1="1178.24" x2="452.23" y2="622.93" xlink:href="#linear-gradient"/><linearGradient id="linear-gradient-18" x1="452.97" y1="936.33" x2="452.97" y2="625.37" xlink:href="#linear-gradient"/><linearGradient id="linear-gradient-19" x1="216.86" y1="1049.25" x2="445.52" y2="1427.6" xlink:href="#linear-gradient"/><linearGradient id="linear-gradient-20" x1="461.56" y1="1609.2" x2="26.64" y2="969.19" xlink:href="#linear-gradient"/><linearGradient id="linear-gradient-21" x1="4142.94" y1="1049.25" x2="4371.6" y2="1427.6" gradientTransform="matrix(-1, 0, 0, 1, 4840.74, 0)" xlink:href="#linear-gradient"/><linearGradient id="linear-gradient-22" x1="4387.64" y1="1609.2" x2="3952.71" y2="969.19" gradientTransform="matrix(-1, 0, 0, 1, 4840.74, 0)" xlink:href="#linear-gradient"/><linearGradient id="linear-gradient-23" x1="168.46" y1="553.59" x2="-2.33" y2="609.55" xlink:href="#linear-gradient"/><linearGradient id="linear-gradient-24" x1="154.98" y1="366.3" x2="12.67" y2="320.31" xlink:href="#linear-gradient"/><linearGradient id="linear-gradient-25" x1="267.73" y1="203.19" x2="186.34" y2="93.23" xlink:href="#linear-gradient"/><linearGradient id="linear-gradient-26" x1="456.52" y1="143.91" x2="456.52" y2="3.44" xlink:href="#linear-gradient"/><linearGradient id="linear-gradient-27" x1="651.62" y1="201.47" x2="729.28" y2="84.67" xlink:href="#linear-gradient"/><linearGradient id="linear-gradient-28" x1="777.55" y1="358.36" x2="909.25" y2="306.79" xlink:href="#linear-gradient"/><linearGradient id="linear-gradient-29" x1="790.5" y1="555.82" x2="926.59" y2="593.73" xlink:href="#linear-gradient"/></defs><g id="Layer_2" data-name="Layer 2"><g id="Layer_1-2" data-name="Layer 1"><path class="cls-1" d="M679.87,346.91c-33.82-24.12-97.4-25.83-177.16-30.63-14.06-.83-28.54-1.28-43.31-1.28s-29.26.45-43.32,1.28c-75.26,4.53-141.81,4.53-177.15,26.61,49.48-36.61,206.26-157,217.44-157C469.79,185.85,656.19,329.41,679.87,346.91Z"/><ellipse class="cls-2" cx="456.52" cy="365.63" rx="235.4" ry="61.34"/><path class="cls-3" d="M341.49,391.81v.31c-.31,7.27-11.7,12.56-25.43,11.79s-24.59-7.27-24.28-14.54a7.91,7.91,0,0,1,2.22-5.05c4-4.49,12.94-7.31,23.2-6.73,9.87.54,18.26,4.06,22.08,8.68A8.72,8.72,0,0,1,341.49,391.81Z"/><path class="cls-4" d="M341.49,381.23v10.58a8.72,8.72,0,0,0-2.21-5.54c-3.82-4.62-12.21-8.14-22.08-8.68-10.26-.58-19.22,2.24-23.2,6.73a7.91,7.91,0,0,0-2.22,5.05v-10.9c.3-7.27,11.68-12.54,25.42-11.77S341.81,374,341.49,381.23Z"/><path class="cls-5" d="M431.58,364v.31c-.19,7.27-11.48,12.75-25.23,12.22s-24.71-6.86-24.52-14.14a8,8,0,0,1,2.13-5.08c3.91-4.56,12.82-7.53,23.09-7.12,9.88.37,18.32,3.75,22.22,8.31A8.69,8.69,0,0,1,431.58,364Z"/><path class="cls-6" d="M431.4,353.39l.18,10.59a8.69,8.69,0,0,0-2.31-5.5c-3.9-4.56-12.34-7.94-22.22-8.31-10.27-.41-19.18,2.56-23.09,7.12a8,8,0,0,0-2.13,5.08l-.18-10.89c.18-7.28,11.47-12.74,25.21-12.2S431.59,346.12,431.4,353.39Z"/><path class="cls-7" d="M573.69,391.81v.31c.32,7.27,11.7,12.56,25.43,11.79s24.6-7.27,24.28-14.54a8,8,0,0,0-2.21-5.05c-4-4.49-12.94-7.31-23.2-6.73-9.87.54-18.26,4.06-22.08,8.68A8.68,8.68,0,0,0,573.69,391.81Z"/><path class="cls-8" d="M573.69,381.23v10.58a8.68,8.68,0,0,1,2.22-5.54c3.82-4.62,12.21-8.14,22.08-8.68,10.26-.58,19.21,2.24,23.2,6.73a8,8,0,0,1,2.21,5.05v-10.9c-.3-7.27-11.68-12.54-25.41-11.77S573.38,374,573.69,381.23Z"/><path class="cls-9" d="M483.6,364v.31c.19,7.27,11.48,12.75,25.23,12.22s24.71-6.86,24.52-14.14a7.91,7.91,0,0,0-2.13-5.08c-3.91-4.56-12.82-7.53-23.08-7.12-9.88.37-18.33,3.75-22.23,8.31A8.74,8.74,0,0,0,483.6,364Z"/><path class="cls-10" d="M483.78,353.39,483.6,364a8.74,8.74,0,0,1,2.31-5.5c3.9-4.56,12.35-7.94,22.23-8.31,10.26-.41,19.17,2.56,23.08,7.12a7.91,7.91,0,0,1,2.13,5.08l.18-10.89c-.17-7.28-11.46-12.74-25.21-12.2S483.59,346.12,483.78,353.39Z"/><path class="cls-11" d="M334.81,394.7c.09-5.08-7.86-9.47-17.76-9.83-9.61-.35-17.5,3.25-18.05,8.09h0l0,.44h0l-1.46,44-1.26,38.05-1.45,43.78,35.83,2.3L333,448.81l1.29-38.63.48-14.9h0C334.77,395.08,334.81,394.89,334.81,394.7Z"/><path class="cls-12" d="M620.49,475.44l-1.26-38.05-1.46-44h0l0-.44h0c-.55-4.84-8.44-8.44-18.05-8.09-9.9.36-17.85,4.75-17.76,9.83,0,.19,0,.38.06.58h0l.48,14.9,1.29,38.63,2.42,72.71,35.82-2.3Z"/><path class="cls-13" d="M424.21,366.17c0-5.08-8.07-9.14-18-9.06-9.62.06-17.43,4-17.87,8.85h0v.45l-.48,43.94-.5,43.76-.43,38.23,35.85.78.7-60.95.49-44,.24-21.43h-.05C424.17,366.55,424.21,366.36,424.21,366.17Z"/><path class="cls-14" d="M528.85,454.11l-.5-43.76-.49-43.94V366h0c-.44-4.87-8.25-8.79-17.86-8.85-9.91-.08-17.95,4-18,9.06a4,4,0,0,0,.07.58H492l.25,21.43.49,44,.69,60.95,35.85-.78Z"/><path class="cls-15" d="M705.48,572c-.32,30-36.69,56.62-93.24,73.9v0C598,627.34,534.76,613.34,459,613.34s-138.84,14-153.22,32.48l0-.4h-.06c-55.62-17.31-91.27-43.73-91.59-73.4.19-21.38,18.28-41.12,48.72-57l.11-.05c16-8.25,35.42-15.47,57.44-21.33l0-.28C360,482.61,408,476.36,459.79,476.36c51,0,98.36,6.07,137.62,16.46l0,.29c22.41,5.87,42.18,13.11,58.48,21.43.91.46,1.83.94,2.73,1.42C687.94,531.71,705.3,551.08,705.48,572Z"/><path class="cls-16" d="M623.08,842.38C607.68,866.86,568,922.64,451.75,948l-.12,0a55,55,0,0,0-5.81,1.26s-.05,0-.07,0c-94.32,21.1-143.51,94.62-164.36,136.2L295,1099.1c12.19,12.17,23.14,24.73,33.74,36.89,10,11.48,19.43,22.31,29.47,32.37l.07.07c4.13,4.16,8.39,8.17,12.64,11.89l4,3.47c4.07,3.53,8.28,7.18,12.43,10.82a366.17,366.17,0,0,1,29.22,28.15c2.75,3,5.54,6.23,8.31,9.64,5,6.1,9.6,12.32,13.7,18.49a224,224,0,0,1,14.06,24.27c1.79,3.55,3.52,7.29,5.45,11.8l0,0,0,0c.19.45.38.91.58,1.37h.52c.2-.46.39-.92.58-1.37l0,0v0c1.93-4.51,3.67-8.25,5.46-11.8a223.9,223.9,0,0,1,14-24.27c4.11-6.17,8.72-12.39,13.7-18.51,2.77-3.39,5.57-6.63,8.31-9.62a369.62,369.62,0,0,1,29.21-28.15c4.16-3.64,8.38-7.29,12.45-10.82l4-3.47c4.26-3.72,8.52-7.73,12.64-11.89l.07-.07c10-10.06,19.48-20.89,29.48-32.37,10.59-12.16,21.53-24.72,33.73-36.89l13.6-13.56ZM511,1103.58a10.06,10.06,0,0,1-9.95,10.19H416.9a10.06,10.06,0,0,1-9.95-10.19v-86.09c0-29.6,23.19-53.65,52-54.1,28.79.45,52,24.5,52,54.1ZM612.16,644.67c-14.37-18.53-77.5-32.48-153.2-32.48S320.1,626.14,305.74,644.67l0,.74h.06l0,.4c14.38-18.52,77.51-32.48,153.22-32.48s139,14,153.26,32.55Z"/><path class="cls-17" d="M613,659.57l-.32-6-.41-7.38c-3,5.85-34.32,60.63-166.15,91.57l-3.9.93c-83.59,19.15-128.39,84.29-148.52,124l-12.29,222.76c20.85-41.58,70-115.1,164.36-136.2,0,0,.05,0,.07,0a55,55,0,0,1,5.81-1.26l.12,0C568,922.64,607.68,866.86,623.08,842.38ZM501.76,863.84a8.35,8.35,0,0,1-8.24,8.44H424.37a8.35,8.35,0,0,1-8.23-8.44V792.71c0-24.39,19.07-44.23,42.82-44.68,23.73.45,42.8,20.29,42.8,44.68Z"/><path class="cls-18" d="M612.25,646.24c-3,5.85-34.32,60.64-166.15,91.58l-3.91.92c-83.59,19.14-128.38,84.28-148.5,124l11.22-203.22.79-14.16h.06l0,.4c14.38-18.52,77.51-32.48,153.22-32.48s139,14,153.27,32.55h0Z"/><path class="cls-19" d="M441,1401.9l-1.27,34.87c1.7-46.76-92.19-109.15-127.33-146.89-2.08-2.32-4.27-4.52-5.26-5.71-23.86-28.53-44.84-58.64-50.32-97.18-3.08-21.84.38-42.51,10.24-63.82,22.67,22.61,41.44,47.44,63.18,69.22,4.53,4.57,9.22,9,14.08,13.24,5.45,4.73,10.91,9.44,16.34,14.22a335.72,335.72,0,0,1,27.12,26.07c2.55,2.79,5,5.65,7.35,8.53,4.37,5.35,8.44,10.82,12.15,16.41a193.17,193.17,0,0,1,12.4,21.42c1.74,3.43,3.3,6.88,4.8,10.37s2.93,7.14,4.22,10.77a206.06,206.06,0,0,1,10.06,40.67c1.08,7.2,1.78,14.5,2.17,21.93C441.39,1384.5,441.44,1393.13,441,1401.9Z"/><path class="cls-20" d="M421.74,1436.12l0-.06h0c-1.09,0-2.28,0-3.52-.07-3.77-.13-8.21-.45-13.47-.84-62.54-4.68-119.35-21.47-168.75-51.59-35.75-21.79-67.63-50.55-95-86.79-82.16-108.62-98.43-229-49.76-357.07,2.77-7.19,7.55-24.79,7.55-24.79s6,15.28,10.31,26.55c8.68,22.57,12.72,39.13,14.29,56,3.09,33.07,5.68,50.74,13.43,83.27,10.38,43.58,24.91,85.2,49.95,122a249.48,249.48,0,0,0,16.15,21.33c24.6,29.09,53.84,51.2,88.48,65q8.44,3.39,17.3,6.07l.4.13c1.23.36,2.47.73,3.72,1.08l.29.09,8.34,2.45c39.88,38.13,119.92,94.68,118.35,137.88Z"/><path class="cls-21" d="M473.64,1401.9l1.26,34.87c-1.69-46.76,92.2-109.15,127.34-146.89,2.08-2.32,4.27-4.52,5.26-5.71,23.86-28.53,44.84-58.64,50.32-97.18,3.08-21.84-.38-42.51-10.25-63.82-22.66,22.61-41.43,47.44-63.17,69.22-4.53,4.57-9.23,9-14.08,13.24-5.45,4.73-10.91,9.44-16.35,14.22a335.59,335.59,0,0,0-27.11,26.07c-2.56,2.79-5,5.65-7.35,8.53-4.37,5.35-8.44,10.82-12.16,16.41a196.38,196.38,0,0,0-12.4,21.42c-1.73,3.43-3.3,6.88-4.8,10.37s-2.92,7.14-4.21,10.77a206.78,206.78,0,0,0-10.07,40.67q-1.61,10.8-2.17,21.93C473.27,1384.5,473.23,1393.13,473.64,1401.9Z"/><path class="cls-22" d="M492.92,1436.12l0-.06h0c1.09,0,2.27,0,3.51-.07,3.78-.13,8.22-.45,13.47-.84,62.55-4.68,119.36-21.47,168.76-51.59,35.75-21.79,67.63-50.55,95.05-86.79,82.16-108.62,98.43-229,49.75-357.07-2.76-7.19-7.55-24.79-7.55-24.79s-6,15.28-10.3,26.55c-8.68,22.57-12.72,39.13-14.29,56-3.09,33.07-5.68,50.74-13.43,83.27-10.39,43.58-24.91,85.2-49.95,122a249.48,249.48,0,0,1-16.15,21.33c-24.61,29.09-53.85,51.2-88.48,65q-8.44,3.39-17.3,6.07l-.4.13-3.72,1.08-.29.09-8.34,2.45c-39.89,38.13-119.92,94.68-118.36,137.88Z"/><path class="cls-23" d="M107.88,568.44c9.87-.94,13.69,12.51,4.79,16.9L61.52,610.58,22.76,629.71a8.93,8.93,0,0,1-12.44-5.21c-.08-.24-.15-.48-.23-.72l-.06,0Q4.42,606.52.19,589H.27l0-.1a8.93,8.93,0,0,1,7.85-11l43-4.07Z"/><path class="cls-24" d="M119.53,347.91c8.62,4.9,4,18.11-5.77,16.6l-56.38-8.66-42.72-6.57a8.93,8.93,0,0,1-7.2-11.4c.07-.24.15-.48.22-.72l-.06,0Q12.95,319.77,19.55,303l.08,0,0-.09a8.91,8.91,0,0,1,12.71-4.46l37.56,21.32Z"/><path class="cls-25" d="M255.56,174c4.26,9-7.07,17.14-14.24,10.29L200.1,144.8l-31.23-29.88a8.92,8.92,0,0,1,.65-13.47l.59-.46,0,0q14.33-11.19,29.39-21.17l0,.08.08-.06a8.91,8.91,0,0,1,13,3.64l18.54,39Z"/><path class="cls-26" d="M466.78,109.47c-1.66,9.78-15.64,10-17.57.26L438.06,53.79,429.62,11.4A8.93,8.93,0,0,1,437.87.73l.76,0V.63q18.15-.94,36.22-.48V.23h.1a8.91,8.91,0,0,1,8.54,10.41l-7.19,42.59Z"/><path class="cls-27" d="M676.77,177.81c-7,7.06-18.53-.79-14.54-9.87l23-52.22,17.4-39.56a8.93,8.93,0,0,1,12.88-4l.64.4,0,0q15.4,9.63,29.94,20.37l-.05.07.08.06a8.92,8.92,0,0,1,1,13.43l-30.32,30.76Z"/><path class="cls-28" d="M809.6,354.23c-9.76,1.79-14.73-11.27-6.25-16.42l48.76-29.61,36.94-22.43a8.93,8.93,0,0,1,12.85,4.11l.29.69.06,0q7.1,16.72,12.84,33.86l-.08,0,0,.1a8.92,8.92,0,0,1-6.87,11.59l-42.48,7.8Z"/><path class="cls-29" d="M817.21,574.93c-9-4.13-5.6-17.68,4.3-17l56.92,3.71,43.13,2.82a8.93,8.93,0,0,1,8.17,10.73c-.05.25-.11.49-.16.74h.06q-3.78,17.77-8.9,35.1l-.08,0,0,.1a8.91,8.91,0,0,1-12.27,5.55l-39.28-18Z"/></g></g></svg>