<svg width="64" height="64" viewBox="0 0 64 64" fill="none" xmlns="http://www.w3.org/2000/svg">
<path d="M57.3067 27.1734L54.64 25.7067L30.64 12.3734H30.3467C30.1832 12.3043 30.0135 12.2507 29.84 12.2134H29.3333H28.8533C28.6711 12.2507 28.4927 12.3043 28.32 12.3734H28.0267L4.02667 25.7067C3.61627 25.9393 3.27492 26.2766 3.03743 26.6841C2.79993 27.0917 2.6748 27.555 2.6748 28.0267C2.6748 28.4984 2.79993 28.9617 3.03743 29.3693C3.27492 29.7769 3.61627 30.1141 4.02667 30.3467L10.6667 34.0267V46.6667C10.6667 48.7884 11.5095 50.8233 13.0098 52.3236C14.5101 53.8239 16.5449 54.6667 18.6667 54.6667H40C42.1217 54.6667 44.1566 53.8239 45.6569 52.3236C47.1571 50.8233 48 48.7884 48 46.6667V34.0267L53.3333 31.04V38.6667C53.3333 39.374 53.6143 40.0522 54.1144 40.5523C54.6145 41.0524 55.2928 41.3334 56 41.3334C56.7072 41.3334 57.3855 41.0524 57.8856 40.5523C58.3857 40.0522 58.6667 39.374 58.6667 38.6667V29.4934C58.6659 29.0209 58.5395 28.557 58.3005 28.1494C58.0616 27.7417 57.7186 27.4049 57.3067 27.1734V27.1734ZM42.6667 46.6667C42.6667 47.374 42.3857 48.0522 41.8856 48.5523C41.3855 49.0524 40.7072 49.3334 40 49.3334H18.6667C17.9594 49.3334 17.2811 49.0524 16.781 48.5523C16.281 48.0522 16 47.374 16 46.6667V36.9867L28.0267 43.6534L28.4267 43.8134H28.6667C28.888 43.8413 29.112 43.8413 29.3333 43.8134C29.5547 43.8413 29.7787 43.8413 30 43.8134H30.24C30.3816 43.7835 30.5169 43.7294 30.64 43.6534L42.6667 36.9867V46.6667ZM29.3333 38.2934L10.8267 28L29.3333 17.7067L47.84 28L29.3333 38.2934Z" fill="#241E7B"/>
</svg>
