<svg width="64" height="64" viewBox="0 0 64 64" fill="none" xmlns="http://www.w3.org/2000/svg">
<path d="M55.6532 46L48.4265 33.52C49.9053 30.804 50.6757 27.7591 50.6665 24.6667C50.6665 19.716 48.6999 14.968 45.1992 11.4673C41.6985 7.96666 36.9506 6 31.9999 6C27.0492 6 22.3012 7.96666 18.8005 11.4673C15.2999 14.968 13.3332 19.716 13.3332 24.6667C13.324 27.7591 14.0944 30.804 15.5732 33.52L8.34654 46C8.11203 46.4062 7.9888 46.867 7.98926 47.336C7.98972 47.805 8.11387 48.2656 8.34917 48.6713C8.58448 49.077 8.92262 49.4134 9.32948 49.6467C9.73635 49.88 10.1975 50.0019 10.6665 50H18.3199L22.2132 56.56C22.3445 56.7774 22.5061 56.975 22.6932 57.1467C23.1875 57.6232 23.8466 57.8906 24.5332 57.8933H24.9065C25.3091 57.8382 25.6938 57.6919 26.0312 57.4654C26.3686 57.239 26.6497 56.9384 26.8532 56.5867L31.9999 47.7333L37.1465 56.6667C37.353 57.0134 37.6355 57.3088 37.9727 57.5305C38.3099 57.7522 38.693 57.8945 39.0932 57.9467H39.4665C40.1623 57.9508 40.8322 57.6829 41.3332 57.2C41.5126 57.0381 41.6655 56.8491 41.7865 56.64L45.6799 50.08H53.3332C53.8031 50.0819 54.2651 49.9595 54.6725 49.7254C55.08 49.4913 55.4183 49.1536 55.6532 48.7467C55.9024 48.3319 56.034 47.8572 56.034 47.3733C56.034 46.8895 55.9024 46.4148 55.6532 46V46ZM24.5065 50.08L22.1332 46.1067C21.8995 45.7125 21.5682 45.3851 21.1711 45.1562C20.7741 44.9274 20.3248 44.8047 19.8665 44.8H15.2532L19.0665 38.1867C21.6925 40.717 25.0021 42.4228 28.5865 43.0933L24.5065 50.08ZM31.9999 38C29.3628 38 26.7849 37.218 24.5923 35.7529C22.3996 34.2878 20.6906 32.2055 19.6815 29.7691C18.6723 27.3328 18.4083 24.6519 18.9227 22.0655C19.4372 19.479 20.7071 17.1033 22.5718 15.2386C24.4365 13.3739 26.8123 12.104 29.3987 11.5895C31.9851 11.0751 34.666 11.3391 37.1023 12.3483C39.5387 13.3574 41.621 15.0664 43.0861 17.2591C44.5512 19.4517 45.3332 22.0296 45.3332 24.6667C45.3332 28.2029 43.9284 31.5943 41.428 34.0948C38.9275 36.5952 35.5361 38 31.9999 38V38ZM44.1332 44.8C43.675 44.8047 43.2256 44.9274 42.8286 45.1562C42.4316 45.3851 42.1002 45.7125 41.8665 46.1067L39.4932 50.08L35.4399 43.0133C39.0118 42.3291 42.3091 40.6248 44.9332 38.1067L48.7465 44.72L44.1332 44.8Z" fill="#241E7B"/>
</svg>
