<svg width="22" height="22" viewBox="0 0 22 22" fill="none" xmlns="http://www.w3.org/2000/svg">
<path d="M3.5 4.75V18.5C3.5 19.163 3.76339 19.7989 4.23223 20.2678C4.70107 20.7366 5.33696 21 6 21H16C16.663 21 17.2989 20.7366 17.7678 20.2678C18.2366 19.7989 18.5 19.163 18.5 18.5V4.75M7.25 4.75C7.25 3.75544 7.64509 2.80161 8.34835 2.09835C9.05161 1.39509 10.0054 1 11 1V1C11.9946 1 12.9484 1.39509 13.6517 2.09835C14.3549 2.80161 14.75 3.75544 14.75 4.75V4.75H7.25ZM7.25 4.75H14.75H7.25ZM7.25 4.75H3.5H7.25ZM14.75 4.75H18.5H14.75ZM21 4.75H18.5H21ZM1 4.75H3.5H1Z" stroke="#A0213E" stroke-width="1.5" stroke-linecap="round" stroke-linejoin="round"/>
</svg>
