<svg width="36" height="31" viewBox="0 0 36 31" fill="none" xmlns="http://www.w3.org/2000/svg">
<path d="M34.371 0C34.756 0 35.1002 0.145833 35.4035 0.4375C35.6835 0.7175 35.8235 1.05583 35.8235 1.4525V29.1725C35.8235 29.5692 35.6835 29.9075 35.4035 30.1875C35.1002 30.4792 34.756 30.625 34.371 30.625H11.026C10.641 30.625 10.2969 30.4792 9.99355 30.1875C9.71355 29.9075 9.57355 29.5692 9.57355 29.1725V24.0625H2.27605C1.89105 24.0625 1.54688 23.9225 1.24355 23.6425C0.963547 23.3392 0.823547 22.995 0.823547 22.61V8.015C0.823547 7.63 0.963547 7.28583 1.24355 6.9825C1.54688 6.7025 1.89105 6.5625 2.27605 6.5625H9.57355V1.4525C9.57355 1.05583 9.71355 0.7175 9.99355 0.4375C10.2969 0.145833 10.641 0 11.026 0H34.371ZM9.57355 17.1675L11.6385 21.0525H14.771L11.3235 15.4175L14.701 9.87H11.7085L9.80105 13.3875L9.73105 13.4925L9.67855 13.615C9.37521 12.9967 9.04855 12.3725 8.69855 11.7425C8.40688 11.1242 8.09771 10.5 7.77105 9.87H4.60355L7.91105 15.4525L4.32355 21.0525H7.43855L9.57355 17.1675ZM21.6135 28.4375V24.0625H11.761V28.4375H21.6135ZM21.6135 21.875V16.415H18.3235V21.875H21.6135ZM21.6135 14.2275V8.75H18.3235V14.2275H21.6135ZM21.6135 6.5625V2.1875H11.761V6.5625H21.6135ZM33.636 28.4375V24.0625H23.801V28.4375H33.636ZM33.636 21.875V16.415H23.801V21.875H33.636ZM33.636 14.2275V8.75H23.801V14.2275H33.636ZM33.636 6.5625V2.1875H23.801V6.5625H33.636Z" fill="#F2F2F2"/>
</svg>
