<svg width="13" height="16" viewBox="0 0 13 16" fill="none" xmlns="http://www.w3.org/2000/svg">
<path d="M7.92188 1.3599e-08C8.3851 -5.60175e-05 8.83108 0.173036 9.16967 0.484295C9.50827 0.795555 9.71423 1.22177 9.74594 1.6768L9.75 1.8C9.75 1.732 9.74594 1.6656 9.73862 1.6H11.1719C11.4119 1.6 11.6497 1.64656 11.8715 1.73702C12.0933 1.82748 12.2948 1.96006 12.4646 2.12721C12.6343 2.29435 12.769 2.49278 12.8608 2.71117C12.9527 2.92956 13 3.16362 13 3.4V14.2C13 14.4364 12.9527 14.6704 12.8608 14.8888C12.769 15.1072 12.6343 15.3056 12.4646 15.4728C12.2948 15.6399 12.0933 15.7725 11.8715 15.863C11.6497 15.9534 11.4119 16 11.1719 16H1.82812C1.34328 16 0.878286 15.8104 0.535446 15.4728C0.192606 15.1352 0 14.6774 0 14.2V3.4C0 2.92261 0.192606 2.46477 0.535446 2.12721C0.878286 1.78964 1.34328 1.6 1.82812 1.6H3.26137C3.25569 1.6464 3.25325 1.6936 3.25081 1.7408L3.25 1.8C3.25 1.32261 3.44261 0.864773 3.78545 0.527208C4.12829 0.189642 4.59328 1.3599e-08 5.07812 1.3599e-08H7.92188ZM7.92188 3.6H5.07812C4.77209 3.60008 4.47094 3.52445 4.20234 3.38006C3.93373 3.23566 3.70628 3.02712 3.54087 2.7736L3.55794 2.8H1.82812C1.66651 2.8 1.51151 2.86321 1.39723 2.97574C1.28295 3.08826 1.21875 3.24087 1.21875 3.4V14.2C1.21875 14.5312 1.49175 14.8 1.82812 14.8H11.1719C11.3335 14.8 11.4885 14.7368 11.6028 14.6243C11.717 14.5117 11.7812 14.3591 11.7812 14.2V3.4C11.7812 3.24087 11.717 3.08826 11.6028 2.97574C11.4885 2.86321 11.3335 2.8 11.1719 2.8H9.44206L9.45913 2.7736C9.29372 3.02712 9.06627 3.23566 8.79766 3.38006C8.52906 3.52445 8.22791 3.60008 7.92188 3.6ZM7.92188 1.2H5.07812C4.91651 1.2 4.76151 1.26321 4.64723 1.37574C4.53295 1.48826 4.46875 1.64087 4.46875 1.8C4.46875 1.95913 4.53295 2.11174 4.64723 2.22426C4.76151 2.33679 4.91651 2.4 5.07812 2.4H7.92188C8.08349 2.4 8.23849 2.33679 8.35277 2.22426C8.46705 2.11174 8.53125 1.95913 8.53125 1.8C8.53125 1.64087 8.46705 1.48826 8.35277 1.37574C8.23849 1.26321 8.08349 1.2 7.92188 1.2Z" fill="#241E7B"/>
</svg>
