<svg width="18" height="18" viewBox="0 0 18 18" fill="none" xmlns="http://www.w3.org/2000/svg">
<path fill-rule="evenodd" clip-rule="evenodd" d="M8.99996 15.6667C12.6819 15.6667 15.6666 12.6819 15.6666 9.00002C15.6666 5.31812 12.6819 2.33335 8.99996 2.33335C5.31806 2.33335 2.33329 5.31812 2.33329 9.00002C2.33329 12.6819 5.31806 15.6667 8.99996 15.6667ZM8.99996 17.3334C13.6023 17.3334 17.3333 13.6024 17.3333 9.00002C17.3333 4.39765 13.6023 0.666687 8.99996 0.666687C4.39759 0.666687 0.666626 4.39765 0.666626 9.00002C0.666626 13.6024 4.39759 17.3334 8.99996 17.3334Z" fill="#FFB703"/>
<path d="M8.99996 4.83335C8.53972 4.83335 8.16663 5.20645 8.16663 5.66669V8.16669H5.66663C5.20639 8.16669 4.83329 8.53978 4.83329 9.00002C4.83329 9.46026 5.20639 9.83335 5.66663 9.83335H8.16663V12.3334C8.16663 12.7936 8.53972 13.1667 8.99996 13.1667C9.4602 13.1667 9.83329 12.7936 9.83329 12.3334V9.83335H12.3333C12.7935 9.83335 13.1666 9.46026 13.1666 9.00002C13.1666 8.53978 12.7935 8.16669 12.3333 8.16669H9.83329V5.66669C9.83329 5.20645 9.4602 4.83335 8.99996 4.83335Z" fill="#FFB703"/>
</svg>
