<svg width="16" height="16" viewBox="0 0 16 16" fill="none" xmlns="http://www.w3.org/2000/svg">
<path d="M6.9148 13.3287C8.33796 13.3284 9.72012 12.852 10.8412 11.9753L14.3659 15.5L15.4996 14.3663L11.9749 10.8416C12.8521 9.72038 13.3288 8.33791 13.3292 6.91437C13.3292 3.37765 10.4515 0.5 6.9148 0.5C3.37807 0.5 0.500427 3.37765 0.500427 6.91437C0.500427 10.4511 3.37807 13.3287 6.9148 13.3287ZM6.9148 2.10359C9.56794 2.10359 11.7256 4.26123 11.7256 6.91437C11.7256 9.56751 9.56794 11.7251 6.9148 11.7251C4.26165 11.7251 2.10402 9.56751 2.10402 6.91437C2.10402 4.26123 4.26165 2.10359 6.9148 2.10359Z" fill="#FFB703"/>
</svg>
