<svg width="28" height="28" viewBox="0 0 28 28" fill="none" xmlns="http://www.w3.org/2000/svg">
<path d="M25.1203 10.4267L6.45366 1.09334C5.71698 0.726687 4.88515 0.596156 4.07158 0.719544C3.258 0.842932 2.50228 1.21424 1.90744 1.78283C1.3126 2.35142 0.9076 3.08964 0.747654 3.89682C0.587707 4.70401 0.680598 5.54088 1.01366 6.29334L4.21366 13.4533C4.28627 13.6265 4.32367 13.8123 4.32367 14C4.32367 14.1877 4.28627 14.3736 4.21366 14.5467L1.01366 21.7067C0.742597 22.3156 0.628004 22.9827 0.680299 23.6472C0.732595 24.3117 0.950119 24.9526 1.31311 25.5116C1.67609 26.0707 2.17303 26.5301 2.75876 26.8483C3.34449 27.1664 4.00044 27.3332 4.667 27.3333C5.2913 27.3271 5.90632 27.1813 6.467 26.9067L25.1337 17.5733C25.7958 17.2403 26.3524 16.7297 26.7413 16.0988C27.1301 15.4678 27.3361 14.7412 27.3361 14C27.3361 13.2588 27.1301 12.5322 26.7413 11.9012C26.3524 11.2703 25.7958 10.7598 25.1337 10.4267H25.1203ZM23.9337 15.1867L5.267 24.52C5.02188 24.6377 4.74664 24.6776 4.47818 24.6345C4.20972 24.5913 3.96087 24.4671 3.76501 24.2785C3.56915 24.0899 3.43564 23.8459 3.38237 23.5792C3.3291 23.3126 3.35863 23.0361 3.467 22.7867L6.65366 15.6267C6.69491 15.5311 6.73053 15.4331 6.76033 15.3333H15.947C16.3006 15.3333 16.6398 15.1929 16.8898 14.9428C17.1399 14.6928 17.2803 14.3536 17.2803 14C17.2803 13.6464 17.1399 13.3072 16.8898 13.0572C16.6398 12.8072 16.3006 12.6667 15.947 12.6667H6.76033C6.73053 12.5669 6.69491 12.469 6.65366 12.3733L3.467 5.21334C3.35863 4.96396 3.3291 4.68741 3.38237 4.42077C3.43564 4.15413 3.56915 3.91015 3.76501 3.72154C3.96087 3.53293 4.20972 3.40871 4.47818 3.36554C4.74664 3.32237 5.02188 3.36231 5.267 3.48001L23.9337 12.8133C24.1521 12.9252 24.3354 13.0952 24.4633 13.3046C24.5913 13.514 24.659 13.7546 24.659 14C24.659 14.2454 24.5913 14.486 24.4633 14.6954C24.3354 14.9048 24.1521 15.0748 23.9337 15.1867V15.1867Z" fill="#120F3E"/>
</svg>
