<svg width="18" height="18" viewBox="0 0 18 18" fill="none" xmlns="http://www.w3.org/2000/svg">
<path d="M9.17071 2H1C0.447715 2 0 2.44772 0 3C0 3.55228 0.447715 4 1 4H9.17071C9.58254 5.16519 10.6938 6 12 6C13.3062 6 14.4175 5.16519 14.8293 4H17C17.5523 4 18 3.55228 18 3C18 2.44772 17.5523 2 17 2H14.8293C14.4175 0.834808 13.3062 0 12 0C10.6938 0 9.58254 0.834808 9.17071 2Z" fill="#F2F2F2"/>
<path d="M5 6C6.30622 6 7.41746 6.83481 7.82929 8H17C17.5523 8 18 8.44772 18 9C18 9.55228 17.5523 10 17 10H7.82929C7.41746 11.1652 6.30622 12 5 12C3.69378 12 2.58254 11.1652 2.17071 10H1C0.447715 10 0 9.55228 0 9C0 8.44772 0.447715 8 1 8H2.17071C2.58254 6.83481 3.69378 6 5 6Z" fill="#F2F2F2"/>
<path d="M0 15C0 14.4477 0.447715 14 1 14H11.1707C11.5825 12.8348 12.6938 12 14 12C15.3062 12 16.4175 12.8348 16.8293 14H17C17.5523 14 18 14.4477 18 15C18 15.5523 17.5523 16 17 16H16.8293C16.4175 17.1652 15.3062 18 14 18C12.6938 18 11.5825 17.1652 11.1707 16H1C0.447715 16 0 15.5523 0 15Z" fill="#F2F2F2"/>
</svg>
