<svg width="8" height="12" viewBox="0 0 8 12" fill="none" xmlns="http://www.w3.org/2000/svg">
<path d="M6.96852 0.142247L0.1858 5.63816C0.0666717 5.73469 0 5.86416 0 5.99897C0 6.13377 0.0666717 6.26324 0.1858 6.35978L6.96852 11.8578C7.02401 11.9028 7.09036 11.9386 7.16364 11.963C7.23693 11.9874 7.31567 12 7.39522 12C7.47477 12 7.55351 11.9874 7.62679 11.963C7.70008 11.9386 7.76643 11.9028 7.82192 11.8578C7.93609 11.7654 8 11.6415 8 11.5125C8 11.3834 7.93609 11.2595 7.82192 11.1671L1.44365 5.99897L7.82192 0.83182C7.93569 0.739547 7.99936 0.615835 7.99936 0.487033C7.99936 0.358231 7.93569 0.234519 7.82192 0.142247C7.76643 0.0972295 7.70008 0.0614494 7.62679 0.0370182C7.55351 0.012587 7.47477 0 7.39522 0C7.31567 0 7.23693 0.012587 7.16364 0.0370182C7.09036 0.0614494 7.02401 0.0972295 6.96852 0.142247Z" fill="#FAFDFF"/>
</svg>
