<svg width="265" height="342" viewBox="0 0 265 342" fill="none" xmlns="http://www.w3.org/2000/svg">
<g filter="url(#filter0_d_384_914)">
<path fill-rule="evenodd" clip-rule="evenodd" d="M-38.3828 159.064C-15.9032 142.607 12.6274 139.178 40.457 138.375C67.5032 137.594 93.3153 143.387 117.939 154.552C146.377 167.447 190.631 176.148 192.52 207.325C194.623 242.044 134.746 250.73 125.803 284.365C116.922 317.77 169.061 357.976 145.687 383.468C123.863 407.271 85.5709 366.488 53.4673 363.258C29.0507 360.801 1.08932 382.012 -18.2742 366.97C-37.8978 351.726 -22.5944 318.203 -33.3604 295.807C-45.715 270.106 -83.2198 258.2 -84.2671 229.687C-85.3223 200.957 -61.6063 176.067 -38.3828 159.064Z" fill="#3F8EFC" fill-opacity="0.7" shape-rendering="crispEdges"/>
</g>
<g filter="url(#filter1_d_384_914)">
<path fill-rule="evenodd" clip-rule="evenodd" d="M157.443 232.323C143.499 255.426 119.281 269.145 94.7098 280.256C70.83 291.054 45.5981 295.517 19.4226 294.734C-10.809 293.83 -53.6083 302.581 -66.9394 275.423C-81.7854 245.179 -31.5162 215.055 -36.085 181.656C-40.6226 148.485 -102.235 132.024 -90.866 100.512C-80.2502 71.0885 -30.7981 93.2367 -0.900357 84.1346C21.8384 77.212 38.9065 47.8131 61.8294 54.0252C85.0602 60.3207 83.9024 95.9951 101.888 111.99C122.527 130.346 160.492 126.98 172.076 152.071C183.748 177.353 171.849 208.455 157.443 232.323Z" fill="#87BFFF" fill-opacity="0.04" shape-rendering="crispEdges"/>
</g>
<path d="M64.7006 267C64.7006 269.761 66.8721 272 69.5508 272C72.2294 272 74.4009 269.761 74.4009 267C74.4009 264.239 72.2294 262 69.5508 262C66.8721 262 64.7006 264.239 64.7006 267Z" fill="#004385"/>
<path d="M64.7006 307C64.7006 309.761 66.8721 312 69.5508 312C72.2294 312 74.4009 309.761 74.4009 307C74.4009 304.239 72.2294 302 69.5508 302C66.8721 302 64.7006 304.239 64.7006 307Z" fill="#004385"/>
<path d="M14.9999 267C14.9999 269.762 17.1715 272 19.8502 272C22.5289 272 24.7004 269.762 24.7004 267C24.7004 264.239 22.5289 262 19.8502 262C17.1715 262 14.9999 264.239 14.9999 267Z" fill="#004385"/>
<path d="M19.8503 312C17.1827 312 15.0002 309.75 15.0002 307C15.0002 304.25 17.1827 302 19.8503 302C22.5179 302 24.7004 304.25 24.7004 307C24.7004 309.75 22.5179 312 19.8503 312Z" fill="#004385"/>
<defs>
<filter id="filter0_d_384_914" x="-151.301" y="102.305" width="364.875" height="340.585" filterUnits="userSpaceOnUse" color-interpolation-filters="sRGB">
<feFlood flood-opacity="0" result="BackgroundImageFix"/>
<feColorMatrix in="SourceAlpha" type="matrix" values="0 0 0 0 0 0 0 0 0 0 0 0 0 0 0 0 0 0 127 0" result="hardAlpha"/>
<feOffset dx="-23" dy="8"/>
<feGaussianBlur stdDeviation="22"/>
<feComposite in2="hardAlpha" operator="out"/>
<feColorMatrix type="matrix" values="0 0 0 0 0 0 0 0 0 0.262745 0 0 0 0 0.521569 0 0 0 0.13 0"/>
<feBlend mode="normal" in2="BackgroundImageFix" result="effect1_dropShadow_384_914"/>
<feBlend mode="normal" in="SourceGraphic" in2="effect1_dropShadow_384_914" result="shape"/>
</filter>
<filter id="filter1_d_384_914" x="-145.263" y="52.1691" width="357.063" height="330.219" filterUnits="userSpaceOnUse" color-interpolation-filters="sRGB">
<feFlood flood-opacity="0" result="BackgroundImageFix"/>
<feColorMatrix in="SourceAlpha" type="matrix" values="0 0 0 0 0 0 0 0 0 0 0 0 0 0 0 0 0 0 127 0" result="hardAlpha"/>
<feOffset dx="-9" dy="43"/>
<feGaussianBlur stdDeviation="22"/>
<feComposite in2="hardAlpha" operator="out"/>
<feColorMatrix type="matrix" values="0 0 0 0 0 0 0 0 0 0.262745 0 0 0 0 0.521569 0 0 0 0.13 0"/>
<feBlend mode="normal" in2="BackgroundImageFix" result="effect1_dropShadow_384_914"/>
<feBlend mode="normal" in="SourceGraphic" in2="effect1_dropShadow_384_914" result="shape"/>
</filter>
</defs>
</svg>
