<svg width="205" height="315" viewBox="0 0 205 315" fill="none" xmlns="http://www.w3.org/2000/svg">
<g filter="url(#filter0_d_302_1393)">
<path fill-rule="evenodd" clip-rule="evenodd" d="M144.915 115.453C161.808 106.902 181.319 107.756 200.068 110.294C218.291 112.76 234.959 119.497 250.236 129.706C267.88 141.496 296.592 152.222 294.413 173.337C291.985 196.851 250.874 196.056 241.16 217.622C231.512 239.04 262.03 271.763 243.539 286.273C226.273 299.822 205.105 268.242 183.935 262.527C167.834 258.181 146.739 269.313 135.418 257.086C123.944 244.695 137.912 223.908 133.168 207.701C127.725 189.101 103.892 176.972 106.341 157.737C108.809 138.355 127.464 124.286 144.915 115.453Z" fill="#3F8EFC" fill-opacity="0.7" shape-rendering="crispEdges"/>
</g>
<g filter="url(#filter1_d_302_1393)">
<path fill-rule="evenodd" clip-rule="evenodd" d="M215.689 79.5034C228.402 92.7206 233.148 111.031 236.12 129.115C239.008 146.69 237.499 164.039 232.382 181.084C226.471 200.77 224.687 230.404 204.514 234.379C182.05 238.805 171.117 200.507 148.389 197.632C125.815 194.776 104.173 232.325 85.4868 219.32C68.0391 207.175 91.2765 178.609 90.5603 157.382C90.0156 141.237 73.719 124.862 81.8289 110.907C90.0477 96.7646 113.262 103.8 126.926 94.8066C142.605 84.4865 147.074 58.9728 165.582 55.7819C184.231 52.5667 202.555 65.8488 215.689 79.5034Z" fill="#87BFFF" fill-opacity="0.04" shape-rendering="crispEdges"/>
</g>
<defs>
<filter id="filter0_d_302_1393" x="39.1653" y="72.5507" width="276.365" height="269.07" filterUnits="userSpaceOnUse" color-interpolation-filters="sRGB">
<feFlood flood-opacity="0" result="BackgroundImageFix"/>
<feColorMatrix in="SourceAlpha" type="matrix" values="0 0 0 0 0 0 0 0 0 0 0 0 0 0 0 0 0 0 127 0" result="hardAlpha"/>
<feOffset dx="-23" dy="8"/>
<feGaussianBlur stdDeviation="22"/>
<feComposite in2="hardAlpha" operator="out"/>
<feColorMatrix type="matrix" values="0 0 0 0 0 0 0 0 0 0.262745 0 0 0 0 0.521569 0 0 0 0.13 0"/>
<feBlend mode="normal" in2="BackgroundImageFix" result="effect1_dropShadow_302_1393"/>
<feBlend mode="normal" in="SourceGraphic" in2="effect1_dropShadow_302_1393" result="shape"/>
</filter>
<filter id="filter1_d_302_1393" x="25.9785" y="54.2958" width="246.594" height="267.438" filterUnits="userSpaceOnUse" color-interpolation-filters="sRGB">
<feFlood flood-opacity="0" result="BackgroundImageFix"/>
<feColorMatrix in="SourceAlpha" type="matrix" values="0 0 0 0 0 0 0 0 0 0 0 0 0 0 0 0 0 0 127 0" result="hardAlpha"/>
<feOffset dx="-9" dy="43"/>
<feGaussianBlur stdDeviation="22"/>
<feComposite in2="hardAlpha" operator="out"/>
<feColorMatrix type="matrix" values="0 0 0 0 0 0 0 0 0 0.262745 0 0 0 0 0.521569 0 0 0 0.13 0"/>
<feBlend mode="normal" in2="BackgroundImageFix" result="effect1_dropShadow_302_1393"/>
<feBlend mode="normal" in="SourceGraphic" in2="effect1_dropShadow_302_1393" result="shape"/>
</filter>
</defs>
</svg>
