<svg xmlns="http://www.w3.org/2000/svg" xmlns:xlink="http://www.w3.org/1999/xlink" viewBox="0 0 248.61 270.99"><defs><style>.cls-1{fill:url(#linear-gradient);}</style><linearGradient id="linear-gradient" x1="304.66" y1="235.55" x2="-2.83" y2="64.95" gradientUnits="userSpaceOnUse"><stop offset="0" stop-color="#3f3b72"/><stop offset="1" stop-color="#34a6de"/></linearGradient></defs><g id="Layer_2" data-name="Layer 2"><g id="Layer_1-2" data-name="Layer 1"><path class="cls-1" d="M222.63,48.73,150.28,7A52,52,0,0,0,98.33,7L26,48.73a52,52,0,0,0-26,45v83.55a51.94,51.94,0,0,0,26,45L98.33,264a52,52,0,0,0,52,0l72.35-41.78a51.92,51.92,0,0,0,26-45V93.72A51.94,51.94,0,0,0,222.63,48.73Zm-14,112.85a8.69,8.69,0,0,1-6.18,8.32l-75.63,22.83a8.51,8.51,0,0,1-5,0L46.16,169.9A8.69,8.69,0,0,1,40,161.58V97.76a8.69,8.69,0,0,1,11.23-8.3l8.86,2.71a5.47,5.47,0,0,1,3.87,5.23v65.66a7.88,7.88,0,0,0,4.88,7.29l45.88,18.83a0,0,0,1,0,0-.06L75,168.51A8.49,8.49,0,0,1,70.52,161V86.31c0-6.36,6.46-10.42,11.81-7.43l38.2,21.4h0A3.3,3.3,0,0,1,122.2,103l2.08,62.7s.06,0,.06,0l2.07-62.7a3.3,3.3,0,0,1,1.67-2.76h0l38.21-21.4c5.34-3,11.8,1.07,11.8,7.43V161a8.47,8.47,0,0,1-4.47,7.55l-39.72,20.6a0,0,0,0,0,0,.06l45.86-18.82a7.87,7.87,0,0,0,4.89-7.29V97.4a5.46,5.46,0,0,1,3.87-5.23l8.85-2.71a8.69,8.69,0,0,1,11.23,8.3Z"/></g></g></svg>