<svg xmlns="http://www.w3.org/2000/svg" xmlns:xlink="http://www.w3.org/1999/xlink" viewBox="0 0 248.61 270.99"><defs><style>.cls-1{fill:url(#linear-gradient);}.cls-2{fill:url(#linear-gradient-2);}</style><linearGradient id="linear-gradient" x1="366.59" y1="229.77" x2="-36.52" y2="72.93" gradientUnits="userSpaceOnUse"><stop offset="0" stop-color="#3f3b72"/><stop offset="1" stop-color="#34a6de"/></linearGradient><linearGradient id="linear-gradient-2" x1="366.59" y1="229.76" x2="-36.52" y2="72.92" xlink:href="#linear-gradient"/></defs><g id="Layer_2" data-name="Layer 2"><g id="Layer_1-2" data-name="Layer 1"><path class="cls-1" d="M150,135.49a25.68,25.68,0,1,1-25.68-25.67A25.68,25.68,0,0,1,150,135.49Z"/><path class="cls-2" d="M222.63,48.73,150.28,7A52,52,0,0,0,98.33,7L26,48.73a52,52,0,0,0-26,45v83.55a51.94,51.94,0,0,0,26,45L98.33,264a52,52,0,0,0,52,0l72.35-41.78a51.92,51.92,0,0,0,26-45V93.72A51.94,51.94,0,0,0,222.63,48.73ZM182.74,148.86l4.22,2.53a12.57,12.57,0,0,1,4.3,17.24L185,179.07a12.57,12.57,0,0,1-17.24,4.29l-4.05-2.43a12.7,12.7,0,0,0-12.93-.21c-.69.4-1.38.79-2.09,1.16A12.36,12.36,0,0,0,142,192.54l-.09,5.16a12.57,12.57,0,0,1-12.78,12.35l-12.17-.22a12.55,12.55,0,0,1-12.34-12.78l.09-5.19A12.33,12.33,0,0,0,98.31,181q-1-.6-2-1.23a12.73,12.73,0,0,0-13-.24L79.2,181.8a12.56,12.56,0,0,1-17.08-4.9l-5.89-10.64a12.56,12.56,0,0,1,4.9-17.08l4.37-2.43a12.63,12.63,0,0,0,6.4-11.18v-.08c0-.77,0-1.54,0-2.3a12.34,12.34,0,0,0-6.08-11.06l-4.22-2.54a12.56,12.56,0,0,1-4.3-17.24l6.27-10.43a12.57,12.57,0,0,1,17.24-4.3l4,2.43a12.67,12.67,0,0,0,12.93.21c.69-.4,1.38-.79,2.09-1.16a12.36,12.36,0,0,0,6.73-10.66l.09-5.16a12.55,12.55,0,0,1,12.78-12.34l12.17.21A12.56,12.56,0,0,1,144,73.93L144,79.12A12.32,12.32,0,0,0,150.29,90c.7.4,1.38.81,2.05,1.24a12.75,12.75,0,0,0,12.95.23l4.11-2.28a12.57,12.57,0,0,1,17.08,4.9l5.9,10.64a12.57,12.57,0,0,1-4.9,17.09l-4.37,2.42a12.63,12.63,0,0,0-6.4,11.19v.07q0,1.15-.06,2.31A12.38,12.38,0,0,0,182.74,148.86Z"/></g></g></svg>