<svg xmlns="http://www.w3.org/2000/svg" xmlns:xlink="http://www.w3.org/1999/xlink" viewBox="0 0 248.61 270.99"><defs><style>.cls-1{fill:url(#linear-gradient);}</style><linearGradient id="linear-gradient" x1="304.66" y1="235.55" x2="-2.83" y2="64.95" gradientUnits="userSpaceOnUse"><stop offset="0" stop-color="#3f3b72"/><stop offset="1" stop-color="#34a6de"/></linearGradient></defs><g id="Layer_2" data-name="Layer 2"><g id="Layer_1-2" data-name="Layer 1"><path class="cls-1" d="M222.63,48.73,150.28,7A52,52,0,0,0,98.33,7L26,48.73a52,52,0,0,0-26,45v83.55a51.94,51.94,0,0,0,26,45L98.33,264a52,52,0,0,0,52,0l72.35-41.78a51.92,51.92,0,0,0,26-45V93.72A51.94,51.94,0,0,0,222.63,48.73ZM112.91,165.45C81.62,169.34,45,156.26,30,126c0,0,29.7-32.36,44.55-38.9s26,.53,12.56,12.56-23.34,26.87-5.84,39.6c10.24,7.45,25.79,8.18,36.95,7.51a60.48,60.48,0,0,0,20.18-4.89c4.84-2.08,11-4,13.07-1.56C155.17,144.59,144.21,161.56,112.91,165.45Zm61.16,18.42c-14.86,6.54-26-.53-12.56-12.55s23.34-26.88,5.84-39.61c-10.67-7.75-27.1-8.23-38.32-7.41a54.78,54.78,0,0,0-18.19,4.52c-4.93,2.18-11.48,4.36-13.69,1.83-3.71-4.24,7.25-21.22,38.55-25.11s67.89,9.2,82.92,39.43C218.62,145,188.92,177.33,174.07,183.87Z"/></g></g></svg>