<svg xmlns="http://www.w3.org/2000/svg" xmlns:xlink="http://www.w3.org/1999/xlink" viewBox="0 0 248.61 270.99"><defs><style>.cls-1{fill:url(#linear-gradient);}</style><linearGradient id="linear-gradient" x1="304.66" y1="235.55" x2="-2.83" y2="64.95" gradientUnits="userSpaceOnUse"><stop offset="0" stop-color="#3f3b72"/><stop offset="1" stop-color="#34a6de"/></linearGradient></defs><g id="Layer_2" data-name="Layer 2"><g id="Layer_1-2" data-name="Layer 1"><path class="cls-1" d="M222.63,48.73,150.28,7A52,52,0,0,0,98.33,7L26,48.73a52,52,0,0,0-26,45v83.55a51.94,51.94,0,0,0,26,45L98.33,264a52,52,0,0,0,52,0l72.35-41.78a51.92,51.92,0,0,0,26-45V93.72A51.94,51.94,0,0,0,222.63,48.73ZM63.71,78.51A20.79,20.79,0,0,1,84.52,57.73h5.15l4.92,0a31.55,31.55,0,0,0-4.94,16.16q0,.76,0,1.53l0,29,0,55.93a20.8,20.8,0,0,1-20.81,20.78H63.61Zm35.22,132a20.8,20.8,0,0,1-28.39-7.72L68,198.32h0L65.57,194A31.55,31.55,0,0,0,82,190.28c.45-.24.9-.49,1.33-.76l25.17-14.39,48.54-27.78a20.81,20.81,0,0,1,28.38,7.73l2.56,4.47ZM200.31,141l-2.72,4.36h0l-2.6,4.17a31.62,31.62,0,0,0-11.12-12.72c-.44-.28-.87-.55-1.31-.81l-24.61-15.31L110.44,91.12a20.8,20.8,0,0,1-6.68-28.64l2.72-4.37,87.15,54.22A20.8,20.8,0,0,1,200.31,141Z"/></g></g></svg>