<svg xmlns="http://www.w3.org/2000/svg" xmlns:xlink="http://www.w3.org/1999/xlink" viewBox="0 0 248.61 270.99"><defs><style>.cls-1{fill:url(#linear-gradient);}</style><linearGradient id="linear-gradient" x1="304.66" y1="235.55" x2="-2.83" y2="64.95" gradientUnits="userSpaceOnUse"><stop offset="0" stop-color="#3f3b72"/><stop offset="1" stop-color="#34a6de"/></linearGradient></defs><g id="Layer_2" data-name="Layer 2"><g id="Layer_1-2" data-name="Layer 1"><path class="cls-1" d="M222.63,48.73,150.28,7A52,52,0,0,0,98.33,7L26,48.73a52,52,0,0,0-26,45v83.55a51.94,51.94,0,0,0,26,45L98.33,264a52,52,0,0,0,52,0l72.35-41.78a51.92,51.92,0,0,0,26-45V93.72A51.94,51.94,0,0,0,222.63,48.73ZM124.31,67.16a33,33,0,1,1-33,33A33,33,0,0,1,124.31,67.16Zm57.21,91.56a58.84,58.84,0,0,1-114.43,0,15.63,15.63,0,0,1,9.66-18.1l10.62-4.14a15.62,15.62,0,0,1,13.86,1.2,44,44,0,0,0,46.14,0,15.62,15.62,0,0,1,13.86-1.2l10.63,4.14A15.64,15.64,0,0,1,181.52,158.72Z"/></g></g></svg>