<svg xmlns="http://www.w3.org/2000/svg" xmlns:xlink="http://www.w3.org/1999/xlink" viewBox="0 0 248.61 270.99"><defs><style>.cls-1{fill:url(#linear-gradient);}</style><linearGradient id="linear-gradient" x1="304.66" y1="235.55" x2="-2.83" y2="64.95" gradientUnits="userSpaceOnUse"><stop offset="0" stop-color="#3f3b72"/><stop offset="1" stop-color="#34a6de"/></linearGradient></defs><g id="Layer_2" data-name="Layer 2"><g id="Layer_1-2" data-name="Layer 1"><path class="cls-1" d="M222.63,48.73,150.28,7A52,52,0,0,0,98.33,7L26,48.73a52,52,0,0,0-26,45v83.55a51.94,51.94,0,0,0,26,45L98.33,264a52,52,0,0,0,52,0l72.35-41.78a51.92,51.92,0,0,0,26-45V93.72A51.94,51.94,0,0,0,222.63,48.73ZM108,207.85a7.46,7.46,0,0,1-7.45,7.46h0a7.46,7.46,0,0,1-7.46-7.46v-19.3a7.46,7.46,0,0,1,7.46-7.45h0a7.46,7.46,0,0,1,7.45,7.45Zm23.74,13.85a7.46,7.46,0,0,1-14.91,0V181a7.46,7.46,0,1,1,14.91,0Zm23.74-13.85a7.46,7.46,0,0,1-7.46,7.46h0a7.46,7.46,0,0,1-7.45-7.46v-19.3A7.46,7.46,0,0,1,148,181.1h0a7.46,7.46,0,0,1,7.46,7.45Zm22.25-41.94a6.46,6.46,0,0,1-8.55,6.14,137.26,137.26,0,0,0-89.79,0,6.46,6.46,0,0,1-8.55-6.14V144.25a6.47,6.47,0,0,1,4-6c.82-.33,1.66-.65,2.49-1a129.64,129.64,0,0,1,14.65-4.57,11.62,11.62,0,0,0,8.88-11.24V96.34a64,64,0,0,1,7.22-29.53L119.93,44.2a4.92,4.92,0,0,1,8.72,0l11.79,22.6a63.86,63.86,0,0,1,7.24,29.55v25.11a11.62,11.62,0,0,0,8.88,11.24,129.31,129.31,0,0,1,14.63,4.57c.85.32,1.69.64,2.53,1a6.45,6.45,0,0,1,4,6Z"/></g></g></svg>