<svg xmlns="http://www.w3.org/2000/svg" xmlns:xlink="http://www.w3.org/1999/xlink" viewBox="0 0 248.61 270.99"><defs><style>.cls-1{fill:url(#linear-gradient);}</style><linearGradient id="linear-gradient" x1="304.66" y1="235.55" x2="-2.83" y2="64.95" gradientUnits="userSpaceOnUse"><stop offset="0" stop-color="#3f3b72"/><stop offset="1" stop-color="#34a6de"/></linearGradient></defs><g id="Layer_2" data-name="Layer 2"><g id="Layer_1-2" data-name="Layer 1"><path class="cls-1" d="M222.63,48.73,150.28,7A52,52,0,0,0,98.33,7L26,48.73a52,52,0,0,0-26,45v83.55a51.94,51.94,0,0,0,26,45L98.33,264a52,52,0,0,0,52,0l72.35-41.78a51.92,51.92,0,0,0,26-45V93.72A51.94,51.94,0,0,0,222.63,48.73ZM139.37,166.9h0c-.27.51-9,17.1-9,60.19,0,14.07-12.09,13.38-12.09,0,0-43.09-8.75-59.68-9-60.19h0a44.27,44.27,0,0,0-11.1-16.28,71.09,71.09,0,0,0,52.33,0A44.39,44.39,0,0,0,139.37,166.9Zm-15.06-25a38,38,0,0,1-38-38,38.55,38.55,0,0,1,.24-4.32A37.93,37.93,0,0,1,98.8,75.69c.67-.61,4-3,4.8-3.7,9.07-8.26,15.79-19.15,15.79-32.26a41.33,41.33,0,0,0-.46-6.13,40.87,40.87,0,0,1,8,32.35c-.16.9-.36,1.8-.58,2.68h0l-.08.3v0l-2.57,10.37a13.89,13.89,0,1,0,23.63-5.72,38,38,0,0,1-23,68.29Z"/></g></g></svg>